<?xml version="1.0" standalone="no"?>
<!DOCTYPE svg PUBLIC "-//W3C//DTD SVG 20010904//EN"
 "http://www.w3.org/TR/2001/REC-SVG-20010904/DTD/svg10.dtd">
<svg version="1.0" xmlns="http://www.w3.org/2000/svg"
 width="960.000000pt" height="960.000000pt" viewBox="0 0 960.000000 960.000000"
 preserveAspectRatio="xMidYMid meet">
<metadata>
Created by potrace 1.14, written by Peter Selinger 2001-2017
</metadata>
<g transform="translate(0.000000,960.000000) scale(0.100000,-0.100000)"
fill="#000000" stroke="none">
<path d="M3128 8154 c-36 -19 -46 -59 -25 -93 41 -65 49 -94 43 -160 -17 -190
-72 -296 -257 -496 -155 -167 -150 -157 -101 -178 20 -9 56 -21 80 -27 23 -6
42 -14 42 -18 -1 -21 -30 -122 -45 -156 -10 -23 -63 -86 -126 -150 -60 -60
-109 -114 -109 -119 0 -5 12 -7 26 -4 25 4 26 4 19 -39 l-6 -44 30 6 c27 6 31
4 31 -16 0 -12 -11 -43 -25 -69 -13 -25 -36 -71 -49 -101 -14 -30 -68 -109
-121 -174 -53 -66 -94 -124 -92 -130 2 -6 21 -12 43 -12 71 -3 74 -4 74 -24 0
-32 29 -41 70 -21 35 18 86 19 101 4 12 -12 -19 -53 -40 -53 -58 0 -211 -123
-211 -170 0 -28 25 -25 56 5 32 32 42 32 50 -2 10 -48 13 -53 30 -53 9 0 28 9
42 20 19 16 34 19 56 14 47 -10 49 -14 19 -37 -37 -28 -43 -37 -43 -69 0 -21
-6 -29 -24 -34 -14 -3 -32 -14 -42 -25 -9 -10 -26 -19 -37 -19 -18 0 -17 2 4
19 19 16 22 22 12 32 -8 8 -13 9 -13 2 0 -6 -7 -14 -16 -17 -18 -7 -11 8 19
41 11 13 17 26 14 30 -8 7 -33 -4 -96 -43 l-45 -27 25 32 c53 73 53 71 38 71
-29 0 -253 -195 -243 -211 3 -5 27 -6 53 -3 27 3 89 7 137 7 79 2 98 6 162 36
62 29 89 51 180 146 94 98 162 193 162 225 0 6 -12 15 -26 20 -19 8 -24 15
-19 28 3 9 9 29 12 45 5 22 3 26 -11 21 -9 -3 -16 -9 -16 -13 0 -4 -22 -30
-48 -59 -38 -41 -55 -52 -78 -52 -17 0 -33 3 -37 6 -8 8 56 110 96 151 41 44
65 50 83 24 20 -28 50 -27 70 3 8 14 30 30 48 36 18 6 43 21 54 33 25 26 59
101 64 139 7 52 25 45 60 -22 41 -80 90 -147 121 -163 18 -10 41 -31 51 -48
19 -32 27 -34 57 -18 16 8 26 5 50 -16 17 -14 35 -23 40 -20 13 9 61 -19 97
-56 49 -50 59 -105 11 -60 -13 12 -29 19 -36 17 -7 -3 -24 6 -38 20 -26 26
-31 23 -37 -26 -3 -23 -5 -22 -25 15 -31 59 -61 91 -68 73 -3 -7 -4 -24 -3
-37 5 -38 -18 -35 -49 5 -49 65 -105 124 -113 119 -4 -2 -15 -29 -24 -60 -10
-30 -23 -58 -29 -62 -7 -3 -9 -3 -6 1 4 4 0 33 -8 64 -8 31 -17 65 -18 74 -2
10 -8 26 -14 35 -12 20 -11 24 -17 -69 -3 -32 -9 -70 -15 -85 -10 -26 -12 -27
-19 -8 -5 11 -9 36 -9 56 -1 42 -20 62 -53 57 -24 -3 -37 -36 -30 -76 4 -21 6
-22 28 -7 33 21 37 19 19 -15 -8 -16 -29 -37 -45 -45 -38 -20 -56 -49 -65
-103 -6 -39 -16 -51 -101 -124 -52 -44 -94 -84 -94 -87 0 -4 5 -12 10 -17 11
-11 -61 -66 -217 -168 -83 -54 -84 -55 -77 -83 6 -20 11 -18 109 33 56 30 108
54 116 54 16 0 -48 -42 -141 -91 -36 -19 -67 -36 -70 -39 -3 -3 -61 -32 -130
-64 -69 -33 -126 -61 -128 -61 -1 -1 3 -16 9 -33 l10 -30 37 15 c20 8 74 33
120 54 128 60 129 47 1 -20 -41 -21 -84 -44 -95 -50 -50 -28 -273 -117 -286
-113 -5 1 -8 0 -8 -3 0 -3 20 -53 26 -63 0 -1 37 11 80 27 43 16 88 33 99 37
14 5 17 4 10 -4 -5 -6 -89 -49 -185 -97 -337 -167 -326 -159 -298 -198 13 -17
19 -15 101 28 48 26 87 43 87 38 0 -5 -48 -38 -107 -72 -195 -114 -328 -191
-336 -194 -12 -4 17 -57 31 -57 8 0 26 8 40 19 39 27 153 83 159 77 3 -2 -6
-11 -19 -19 -83 -51 -324 -193 -332 -196 -6 -2 -19 -12 -30 -23 -19 -17 -19
-21 -6 -61 l15 -42 204 -2 203 -2 24 28 c24 29 60 45 69 32 2 -5 -7 -14 -20
-21 -28 -15 -54 -72 -47 -107 2 -13 19 -35 38 -49 37 -29 36 -41 -8 -92 -15
-18 -29 -39 -29 -47 -1 -8 -2 -21 -3 -27 -3 -20 14 -51 43 -75 l26 -23 -27
-24 c-52 -47 -52 -144 1 -161 32 -10 27 -47 -9 -67 -54 -31 -48 -113 12 -144
22 -11 26 -19 20 -31 -5 -9 -7 -24 -5 -33 3 -11 -3 -19 -16 -23 -11 -3 -28
-21 -37 -40 -14 -30 -15 -38 -3 -63 8 -16 30 -38 49 -49 33 -19 34 -22 25 -52
-5 -18 -15 -33 -21 -33 -21 0 -54 -56 -54 -92 0 -37 42 -88 73 -88 12 0 16 -6
13 -22 -3 -13 -5 -26 -5 -30 -1 -5 -7 -8 -15 -8 -8 0 -26 -14 -40 -31 -47 -56
-30 -126 41 -162 40 -21 35 -60 -11 -78 -42 -17 -55 -37 -56 -81 0 -28 7 -42
31 -62 17 -14 39 -26 50 -26 11 0 24 -11 31 -24 10 -22 51 -47 87 -53 7 -1 25
3 40 9 33 14 36 13 206 -24 77 -17 149 -32 160 -33 125 -20 331 -75 695 -185
58 -18 179 -52 270 -75 91 -24 208 -57 260 -73 52 -16 161 -46 243 -66 188
-46 223 -60 273 -109 72 -68 220 -86 363 -45 65 18 101 21 246 21 258 0 259 0
442 -77 34 -15 82 -29 105 -32 24 -3 75 -14 113 -24 123 -31 213 -43 350 -44
l90 -1 -3 77 c-2 57 2 88 15 115 l17 38 6 -70 c8 -101 34 -145 99 -169 l51
-18 1 -92 c1 -89 0 -128 -5 -134 -2 -1 -28 9 -59 24 l-57 25 -1 47 c-1 77 -8
156 -16 172 -10 23 -18 -63 -15 -158 l3 -82 70 -35 69 -35 63 16 c35 8 70 19
78 24 14 9 17 68 18 441 l1 135 58 15 c53 14 57 17 60 47 2 18 0 32 -4 32 -3
0 -50 -12 -102 -26 -99 -27 -124 -28 -247 -5 -27 5 -68 12 -90 16 -22 3 -47 8
-54 11 -8 3 -35 7 -59 10 -50 6 -258 42 -452 78 -129 24 -170 31 -250 42 -19
2 -64 9 -100 14 -36 5 -85 12 -110 15 -25 3 -56 8 -70 10 -27 5 -61 10 -130
20 -104 16 -113 15 -104 -10 6 -14 28 -21 94 -29 72 -10 238 -37 320 -52 46
-8 100 -17 120 -20 19 -2 55 -8 80 -14 25 -5 115 -21 200 -35 85 -13 241 -39
345 -56 105 -17 213 -34 240 -36 78 -8 84 -15 76 -85 -1 -3 -9 -4 -18 -2 -22
4 -217 41 -258 48 -35 7 -70 14 -105 21 -34 7 -62 12 -101 19 -34 5 -113 21
-159 31 -14 3 -41 8 -60 11 -19 3 -66 11 -105 19 -38 8 -83 16 -100 19 -16 3
-59 10 -95 16 -36 6 -81 13 -100 15 -19 2 -55 9 -80 14 -46 10 -84 16 -155 26
-22 3 -51 8 -63 11 -13 3 -42 7 -64 10 -21 3 -46 7 -53 8 -8 1 -16 4 -19 7 -7
7 -13 109 -6 109 3 0 76 16 161 35 85 19 172 37 193 41 49 7 86 21 86 31 0 5
-9 23 -20 41 -22 36 -72 62 -119 62 -36 0 -84 -38 -102 -82 -20 -50 -23 -51
-124 -33 -11 2 -27 4 -35 4 -44 3 -48 44 -6 55 13 3 51 24 84 47 54 36 68 40
114 39 103 -3 101 -4 96 34 -3 30 0 36 29 52 60 32 91 112 63 165 -28 52 -147
72 -188 31 -24 -24 -47 -63 -44 -74 2 -7 -10 -11 -28 -10 -23 1 -165 14 -167
15 -13 13 174 149 196 143 9 -3 44 -8 79 -11 l62 -7 0 34 c0 27 7 37 39 57 61
38 85 109 57 175 -16 40 -46 56 -102 56 -66 0 -134 -55 -134 -110 l0 -27 -77
4 c-140 6 -177 21 -115 44 33 12 113 89 106 101 -3 5 -37 6 -75 2 -60 -5 -69
-4 -69 10 0 19 -48 71 -57 62 -4 -3 1 -14 11 -25 25 -27 27 -74 5 -110 -34
-57 -114 -68 -179 -25 -37 24 -66 76 -54 95 3 5 1 9 -5 9 -31 0 -35 -81 -7
-125 l18 -27 -89 6 c-48 4 -104 8 -123 11 -19 2 -75 7 -125 10 -49 3 -101 8
-115 10 -14 2 -59 6 -100 10 -80 7 -123 11 -207 20 -29 3 -79 7 -110 11 -32 3
-71 7 -88 9 -16 2 -70 7 -120 10 -49 3 -115 8 -145 10 -30 3 -80 8 -110 10
-30 3 -82 8 -115 11 -62 6 -75 7 -235 18 -52 4 -115 9 -140 12 -25 3 -61 7
-80 9 -19 2 -66 6 -105 11 -38 4 -78 7 -87 6 -10 0 -18 3 -18 9 0 5 6 9 14 9
18 0 56 60 56 89 0 22 2 22 88 16 48 -3 103 -8 122 -10 38 -5 130 -12 250 -19
161 -11 257 -17 310 -21 30 -3 102 -7 160 -10 58 -2 134 -7 170 -10 36 -2 108
-7 161 -10 162 -10 221 -14 273 -19 28 -3 83 -8 121 -12 39 -3 78 -8 89 -10
10 -2 81 -6 156 -10 l138 -6 17 25 c24 37 58 47 177 51 122 5 160 -7 209 -68
l29 -34 105 0 c58 -1 103 3 100 7 -2 5 8 14 24 21 50 20 74 54 74 104 -2 75
-46 117 -126 119 -41 1 -117 -44 -117 -69 0 -14 -13 -16 -101 -11 -55 2 -103
7 -106 11 -4 3 -2 6 4 6 6 0 39 21 73 46 81 61 70 74 -52 60 -49 -5 -57 -4
-62 12 -7 22 -65 66 -74 57 -4 -4 7 -18 23 -33 25 -21 30 -32 30 -73 0 -51
-24 -83 -72 -95 -73 -19 -164 46 -154 109 3 18 -20 5 -29 -17 -9 -26 3 -91 20
-101 25 -15 5 -25 -42 -20 -29 2 -93 7 -143 10 -165 10 -230 15 -280 20 -27 2
-88 7 -135 10 -47 4 -101 8 -120 10 -19 2 -73 7 -120 10 -47 3 -107 7 -135 10
-76 6 -267 17 -353 20 -85 3 -250 14 -327 20 -69 6 -155 13 -255 21 -47 4 -96
8 -110 9 -14 2 -34 3 -44 4 -17 1 -18 3 -4 19 18 20 33 55 37 82 1 9 164 6
286 -5 22 -2 146 -7 275 -10 233 -5 398 -12 475 -20 60 -6 284 -15 515 -21
113 -2 269 -6 348 -8 131 -4 143 -3 152 15 21 37 66 51 174 51 100 -1 102 -1
188 -46 74 -39 99 -47 165 -52 43 -3 82 -7 88 -8 5 0 10 12 10 28 0 24 7 33
40 50 46 24 65 56 65 108 0 75 -46 120 -125 122 -71 1 -115 -43 -115 -113 l0
-28 -102 3 c-57 2 -107 4 -112 4 -17 0 18 30 61 52 25 12 58 37 73 55 18 20
42 34 65 39 31 5 34 8 21 16 -17 9 -224 3 -234 -7 -3 -2 -20 9 -39 25 -47 42
-69 41 -43 -2 37 -62 4 -148 -64 -167 -59 -15 -126 40 -126 103 0 32 -27 25
-41 -11 -10 -26 2 -59 30 -80 13 -10 7 -13 -34 -14 -27 -1 -63 -1 -79 -1 -31
1 -81 -31 -81 -51 0 -7 -15 -12 -35 -12 -47 0 -47 26 0 38 19 5 38 13 41 19 4
5 5 43 4 84 l-3 74 57 1 c31 1 75 1 99 2 36 0 45 5 59 28 23 39 57 50 155 51
124 1 286 -32 346 -70 20 -13 56 -17 113 -13 7 1 9 10 6 24 -5 17 0 26 22 38
35 21 61 75 56 119 -8 65 -75 102 -158 86 -27 -5 -38 -14 -53 -46 l-19 -40
-82 0 c-54 0 -83 4 -83 11 0 27 37 69 79 91 l46 23 -87 3 c-79 3 -88 5 -102
27 -11 16 -26 25 -42 25 l-26 0 26 -31 c28 -33 32 -53 16 -95 -10 -25 -44 -62
-59 -65 -98 -19 -172 27 -165 101 9 88 48 109 205 111 132 2 187 -10 226 -50
24 -23 36 -28 73 -26 25 2 64 3 87 4 41 1 41 1 39 36 -2 25 3 43 20 63 82 95
-16 232 -132 184 -28 -12 -74 -67 -74 -89 0 -11 -90 -21 -124 -15 -42 9 14 93
76 115 l43 16 -88 -3 -88 -3 -26 33 c-19 26 -33 34 -57 34 l-31 -1 26 -14 c57
-31 75 -133 31 -178 -27 -26 -89 -39 -129 -26 -69 22 -98 116 -55 177 37 51
79 65 195 65 111 0 185 -17 234 -56 22 -18 41 -22 100 -22 40 -1 74 3 74 7 1
4 2 14 3 21 1 8 18 12 51 11 51 -2 304 -13 430 -19 39 -2 138 -6 220 -10 83
-4 161 -8 175 -9 15 0 26 -8 28 -19 3 -17 -3 -18 -90 -13 -114 7 -296 16 -403
21 -44 2 -149 7 -232 10 -148 7 -153 7 -153 -12 0 -11 10 -28 21 -39 28 -25
40 -57 41 -111 l1 -43 46 -1 c25 -1 71 -3 101 -4 195 -12 868 -24 888 -17 17
6 15 172 -2 178 -10 4 -99 11 -168 13 -11 1 -18 9 -18 20 0 14 7 18 33 16 17
-1 91 -6 162 -9 72 -4 159 -9 195 -11 36 -2 121 -7 190 -10 69 -4 148 -8 175
-10 28 -2 106 -7 175 -10 69 -4 145 -8 170 -10 25 -1 115 -6 200 -10 85 -4
175 -9 200 -10 25 -1 108 -6 185 -10 77 -4 154 -9 170 -10 17 -2 51 -3 76 -4
33 -1 49 -6 53 -17 5 -14 -8 -15 -128 -9 l-133 7 1 -71 c1 -39 4 -73 7 -76 6
-5 335 -17 549 -19 l145 -1 3 68 4 67 -34 1 c-53 1 -250 10 -288 13 -19 2 -50
3 -67 4 -21 1 -33 7 -33 16 0 11 10 14 38 11 20 -2 102 -7 182 -10 80 -3 170
-8 200 -10 30 -2 111 -6 180 -9 69 -3 157 -8 195 -11 72 -4 185 -10 385 -20
63 -4 149 -8 190 -10 41 -2 144 -7 228 -10 l153 -7 -5 38 c-2 22 -5 44 -5 50
-1 16 -46 32 -107 38 -28 3 -66 12 -85 20 -19 8 -59 17 -89 21 -30 3 -62 8
-70 10 -21 6 -90 13 -185 20 -102 7 -166 14 -174 19 -7 4 -134 15 -266 22
-106 5 -119 8 -165 27 -39 17 -72 23 -180 32 -42 4 -80 13 -85 20 -6 7 -38 18
-70 25 -33 6 -64 13 -70 14 -5 2 -31 6 -57 11 -28 4 -48 13 -48 20 0 17 -39
32 -150 54 -62 13 -100 26 -110 38 -8 10 -43 27 -78 37 -35 11 -66 25 -70 31
-4 6 -25 22 -47 34 l-40 22 -1 177 c0 148 -3 182 -18 210 -9 18 -19 53 -22 78
-2 24 -6 64 -8 88 -3 25 -12 58 -20 75 -9 16 -16 44 -16 61 0 20 -9 37 -26 53
-70 58 -91 105 -72 158 8 22 6 39 -6 69 -9 22 -20 78 -25 125 -6 46 -15 94
-21 105 -15 29 -69 60 -103 60 -15 0 -45 12 -67 26 -25 17 -60 29 -89 32 -94
9 -371 -81 -385 -125 -8 -24 -14 -133 -17 -293 -2 -109 -5 -130 -25 -165 -24
-44 -45 -112 -49 -162 -4 -44 -12 -54 -43 -48 -15 2 -56 9 -92 14 -130 21
-143 23 -164 27 -11 2 -46 7 -76 10 -30 3 -57 7 -60 9 -3 2 -29 6 -59 10 -30
4 -63 8 -73 10 -46 9 -184 29 -189 27 -4 -1 -27 16 -51 38 -47 41 -114 153
-102 171 4 7 24 9 55 5 29 -4 49 -3 49 3 0 8 -83 116 -100 131 -13 11 -99 128
-129 174 -41 66 -40 76 7 73 46 -3 46 5 -8 123 -21 47 -41 96 -45 109 -4 13
-22 50 -41 82 -19 31 -34 64 -34 73 0 17 43 49 69 51 24 2 41 14 36 28 -2 7
-6 24 -9 39 -4 15 -38 59 -79 100 -80 80 -134 173 -144 249 -7 55 -26 93 -70
142 -77 86 -103 227 -62 341 18 54 25 96 14 96 -3 0 -23 -9 -44 -19 -75 -39
-130 -121 -176 -261 -9 -30 -30 -75 -45 -100 -15 -25 -33 -63 -40 -85 -19 -57
-78 -165 -110 -200 -34 -37 -63 -92 -55 -105 3 -6 24 -10 45 -10 41 0 75 -23
63 -43 -3 -7 -22 -31 -40 -53 -19 -23 -36 -51 -38 -62 -6 -31 -24 -62 -65
-112 -85 -103 -104 -150 -61 -150 9 0 31 -9 49 -20 l33 -21 -20 -33 c-12 -18
-21 -47 -21 -63 0 -35 -19 -61 -129 -182 -47 -50 -91 -101 -99 -112 -13 -19
-13 -21 4 -16 11 3 41 8 67 12 27 4 57 8 68 10 31 6 22 -10 -35 -67 -78 -76
-102 -95 -117 -92 -32 4 -120 34 -170 57 -78 35 -125 49 -167 49 -51 0 -66 10
-117 80 -68 91 -60 116 39 123 17 2 37 3 44 4 22 2 13 22 -36 80 -107 124
-217 301 -210 337 3 19 19 23 89 25 76 2 78 11 21 71 -69 72 -90 100 -97 129
-3 14 -24 45 -46 68 -21 24 -39 50 -39 58 0 36 -81 165 -95 151 -17 -16 -5
-114 20 -175 8 -19 15 -45 15 -56 0 -20 0 -20 -23 1 -12 11 -35 46 -51 77 -16
30 -31 55 -32 55 -2 0 -1 -17 1 -37 17 -141 11 -172 -21 -111 -13 24 -18 61
-20 133 -2 122 -3 124 -13 105 -5 -8 -11 -42 -14 -75 -3 -33 -13 -79 -21 -101
-33 -94 -66 -133 -66 -79 0 16 -6 25 -15 25 -8 0 -15 -3 -16 -7 0 -5 -2 -31
-4 -60 -3 -61 -11 -78 -30 -63 -8 7 -10 22 -5 51 10 51 -10 50 -53 -3 -46 -57
-38 -138 13 -138 10 0 20 -8 22 -17 8 -39 -31 -137 -48 -120 -3 3 -6 26 -7 51
0 25 -2 46 -4 46 -1 0 -11 -17 -22 -37 -10 -21 -28 -47 -40 -57 -21 -19 -21
-19 -21 5 0 13 9 44 20 68 11 24 20 50 20 59 0 13 -2 13 -17 -1 -10 -9 -27
-33 -38 -54 -35 -69 -99 -163 -111 -163 -8 0 -8 12 3 42 14 40 25 108 17 108
-1 0 -18 -21 -35 -47 -48 -70 -149 -165 -149 -140 0 2 23 47 50 99 55 105 56
108 36 108 -7 0 -36 -31 -64 -68 -62 -83 -98 -117 -66 -61 12 19 29 58 38 86
17 51 61 101 148 166 36 28 50 31 98 24 50 -8 129 51 137 101 5 36 -16 52 -66
52 -34 0 -56 6 -75 21 -15 11 -32 19 -39 16 -7 -2 -22 -1 -35 4 -22 8 -22 10
-7 39 8 16 20 30 24 30 5 0 19 30 31 68 24 73 60 141 85 162 14 11 15 9 11
-24 -6 -52 11 -42 52 27 18 31 36 57 40 58 4 1 19 2 34 3 15 2 34 8 41 15 17
14 57 102 63 140 3 14 7 34 10 44 13 43 -68 18 -173 -55 -24 -16 -43 -27 -43
-24 0 3 15 29 33 58 43 67 50 88 33 88 -7 0 -19 -7 -26 -15 -7 -9 -26 -25 -43
-37 l-29 -21 16 31 c9 17 28 44 42 59 59 62 110 226 121 384 5 89 4 100 -19
151 -30 65 -24 91 15 65 33 -21 36 -43 32 -262 -3 -206 -10 -281 -31 -330 -8
-20 -9 -36 -3 -46 8 -11 13 -10 29 11 11 14 20 29 20 34 0 20 29 -18 45 -62
23 -60 44 -92 60 -92 24 0 65 -41 65 -66 0 -27 -12 -31 -30 -10 -30 37 -95 18
-129 -37 -30 -49 -27 -79 8 -100 61 -36 232 -87 266 -79 11 2 37 6 58 9 20 3
37 10 37 17 0 6 -20 30 -44 53 -40 39 -114 164 -131 223 -4 14 -23 51 -43 82
-21 35 -44 94 -58 150 -23 90 -29 136 -39 290 -6 89 -33 184 -67 234 -25 37
-39 41 -80 18z m1776 -767 c-2 -12 -5 -48 -6 -79 -3 -55 -2 -59 42 -105 49
-52 75 -92 66 -101 -4 -3 -19 7 -34 21 -32 31 -47 34 -60 10 -13 -22 -42 -10
-42 17 0 12 -4 19 -9 16 -16 -10 -6 -63 19 -99 29 -42 66 -66 129 -82 44 -11
48 -15 83 -84 20 -40 49 -86 64 -102 15 -16 24 -29 18 -29 -18 0 -164 62 -164
70 0 4 -7 11 -16 14 -14 5 -16 1 -11 -27 3 -19 1 -40 -4 -48 -7 -11 -13 -9
-34 14 -24 25 -75 38 -75 19 0 -12 38 -61 110 -142 97 -109 131 -164 98 -159
-26 3 -38 -1 -38 -15 0 -17 -26 -40 -34 -28 -3 4 -7 21 -10 36 -3 16 -6 29 -8
30 -30 13 -45 30 -52 59 -11 45 -21 47 -29 8 -5 -24 -10 -28 -27 -24 -28 7
-45 35 -66 104 -10 33 -21 59 -24 59 -4 0 -15 -26 -26 -57 -11 -32 -25 -57
-32 -56 -9 2 -16 -23 -26 -110 -4 -35 -22 -40 -45 -11 -25 31 -26 42 -6 68 8
11 15 23 15 28 0 16 -18 7 -63 -32 -41 -36 -45 -38 -42 -18 3 13 8 38 11 56 4
18 31 69 60 114 30 44 54 86 54 93 0 23 25 33 97 39 87 7 114 19 136 55 19 32
8 57 -28 63 -12 2 -21 14 -26 34 -15 74 -48 74 -125 -1 -32 -30 -65 -55 -75
-55 -18 0 -18 2 2 51 27 70 66 136 85 143 17 6 88 155 99 207 8 37 33 72 46
64 4 -3 6 -15 3 -28z m241 -814 c61 -41 88 -81 100 -148 7 -40 7 -40 -11 -19
-11 11 -24 29 -30 39 -14 25 -34 31 -34 11 0 -9 7 -33 16 -54 27 -64 26 -72
-7 -72 -26 0 -30 -3 -27 -22 2 -19 -2 -24 -29 -26 -18 -2 -33 -7 -33 -13 0
-18 40 -49 110 -84 47 -24 77 -46 90 -68 11 -18 26 -41 34 -52 8 -11 38 -51
66 -90 92 -125 84 -137 -20 -31 -30 31 -57 56 -61 56 -4 0 -5 -14 -2 -31 l5
-31 -26 18 c-15 11 -30 36 -36 59 -19 72 -43 134 -50 130 -4 -3 -10 -23 -14
-46 -4 -23 -9 -46 -13 -52 -3 -5 -24 23 -48 63 -23 39 -46 71 -51 71 -4 0 -10
-13 -11 -28 -2 -16 -8 -41 -12 -58 -7 -27 -9 -25 -19 32 -13 72 -47 157 -60
149 -5 -3 -7 -44 -5 -91 4 -61 1 -90 -8 -101 -11 -14 -14 -13 -25 7 -11 22
-13 21 -37 -27 l-26 -49 -1 46 c0 25 -3 48 -6 52 -12 12 -54 -25 -83 -73 -16
-27 -39 -51 -50 -55 -37 -11 -37 -52 -1 -119 50 -93 51 -94 106 -68 43 21 48
22 70 7 32 -21 39 -15 59 45 12 36 25 55 46 65 16 9 29 20 29 25 0 5 9 12 20
15 23 7 65 -16 92 -51 10 -12 37 -26 61 -33 24 -6 50 -18 57 -26 7 -9 38 -28
68 -43 76 -37 166 -152 119 -152 -7 0 -21 6 -32 14 -11 7 -34 17 -52 20 -22 5
-39 19 -53 42 -12 19 -23 34 -25 34 -1 0 0 -34 2 -75 7 -97 -17 -103 -47 -11
-7 21 -27 55 -45 75 -18 20 -35 46 -39 59 -11 32 -31 27 -51 -14 -9 -19 -21
-34 -28 -31 -6 2 -19 25 -28 53 l-17 49 -1 -37 c-1 -23 -8 -44 -20 -55 -31
-29 -31 -68 -1 -103 22 -25 26 -40 10 -40 -13 0 -49 40 -67 75 -28 54 -31 56
-71 36 -23 -11 -59 -18 -95 -19 -60 0 -73 9 -82 60 -6 31 -8 31 -51 -8 -21
-19 -47 -40 -56 -45 -26 -14 -23 13 3 37 41 36 59 74 47 100 -6 13 -21 25 -32
26 -12 0 -25 2 -31 3 -92 17 -102 16 -137 -5 -76 -44 -108 -25 -47 28 47 40
151 112 162 112 5 0 7 -13 4 -30 -8 -38 3 -38 62 0 26 16 62 36 82 44 33 14
37 20 48 73 6 32 13 82 15 111 4 62 -7 58 -38 -15 -32 -74 -44 -90 -54 -75 -5
7 -16 10 -25 7 -23 -9 -39 28 -31 70 3 19 10 38 15 41 13 7 11 44 -2 44 -11 0
-15 -5 -99 -108 -48 -59 -75 -81 -85 -70 -9 9 26 122 52 170 28 51 50 70 92
76 60 8 126 62 144 117 2 5 31 -20 64 -55 l60 -64 26 29 25 29 22 -46 c20 -43
43 -64 59 -54 3 2 26 7 51 11 25 4 49 9 53 12 11 7 1 154 -13 203 -17 61 -13
63 45 23z m1693 -380 c19 -27 9 -38 -36 -38 -27 0 -50 -8 -69 -23 -26 -21 -39
-24 -110 -26 -48 -1 -49 -12 -1 -21 62 -12 107 -9 155 9 23 9 49 13 58 10 46
-18 -44 -69 -125 -70 -58 -1 -97 -10 -117 -26 -10 -8 -5 -17 17 -38 17 -15 30
-37 30 -49 0 -33 18 -25 82 34 86 80 139 86 146 16 5 -51 -36 -82 -149 -110
-100 -25 -161 -50 -154 -61 3 -4 26 -8 52 -8 27 -1 68 -4 93 -7 40 -6 48 -3
69 19 27 29 62 33 85 11 40 -41 26 -97 -30 -115 -50 -17 -180 -7 -203 15 -23
20 -39 13 -74 -33 -25 -33 -26 -37 -10 -43 26 -9 186 -2 275 11 43 7 81 12 85
11 6 -1 8 -41 4 -126 -1 -14 -7 -25 -15 -25 -22 0 -64 39 -68 63 -5 36 -30 25
-42 -18 -24 -83 -145 -110 -146 -32 0 27 -19 57 -36 57 -8 0 -21 -15 -29 -34
-8 -18 -29 -43 -47 -54 l-32 -21 29 -11 c43 -16 175 -17 282 -1 83 12 95 12
117 -3 31 -20 45 -64 25 -77 -8 -5 -37 -9 -65 -9 -69 0 -87 -20 -38 -43 19 -9
42 -17 50 -17 8 0 25 -5 37 -12 21 -11 21 -12 -18 -29 -22 -10 -38 -19 -35
-20 3 0 25 -3 50 -5 50 -5 65 -15 57 -39 -10 -25 -35 -29 -76 -10 -38 17 -50
26 -137 104 -27 24 -65 54 -84 66 -33 21 -54 27 -194 57 -75 16 -90 36 -71 92
8 21 19 42 26 46 7 5 10 21 7 39 -4 24 0 35 14 42 10 5 18 16 18 23 0 7 10 26
22 41 21 26 21 28 3 41 -16 12 -16 18 -5 61 14 55 14 157 1 181 -6 11 -4 26 5
44 13 25 13 30 0 44 -8 8 -13 21 -9 30 7 19 56 44 87 44 14 0 27 4 30 9 3 5
16 11 28 14 13 3 47 15 77 25 61 22 90 21 109 -5z m-3631 -207 c32 -13 88 -24
320 -63 18 -3 38 -12 44 -19 6 -8 20 -14 29 -14 10 0 20 -5 22 -12 2 -6 12
-12 21 -14 16 -2 87 -42 87 -49 0 -1 -17 -1 -37 0 -163 15 -155 13 -193 50
-44 43 -83 50 -47 9 12 -15 33 -37 46 -50 l24 -23 -31 3 c-18 1 -44 14 -60 29
-36 35 -65 37 -32 2 l23 -25 -48 0 c-27 0 -45 -3 -41 -7 8 -8 9 -9 123 -17 84
-6 92 -5 86 10 -3 10 -2 15 3 12 5 -3 41 -9 79 -13 100 -11 119 -13 125 -14 3
-1 18 -12 34 -26 16 -14 34 -25 40 -26 6 0 18 -2 26 -4 8 -1 35 -6 60 -9 25
-4 69 -11 98 -17 59 -12 75 -6 46 16 -25 19 -7 19 71 0 73 -18 93 -19 79 -5
-10 10 -27 15 -93 26 -48 8 -72 19 -106 49 -23 20 -26 25 -10 21 11 -3 58 -12
105 -21 47 -10 96 -23 110 -31 14 -7 83 -20 154 -27 70 -8 131 -19 135 -25 8
-14 41 -20 164 -28 61 -4 106 -11 114 -19 7 -8 39 -17 70 -21 32 -3 74 -15 93
-24 20 -10 60 -21 90 -25 30 -4 57 -8 60 -10 3 -1 41 -6 84 -10 96 -8 115 -12
130 -24 11 -8 61 -14 231 -27 62 -4 83 -10 95 -24 13 -17 34 -20 169 -24 115
-4 158 -9 170 -20 19 -17 45 -22 164 -31 48 -4 99 -12 113 -20 16 -8 67 -13
137 -14 154 -2 242 -25 312 -82 17 -14 49 -37 73 -53 23 -16 42 -34 42 -41 0
-7 45 -33 101 -57 65 -28 104 -50 109 -63 5 -13 41 -33 104 -59 69 -28 96 -43
96 -56 0 -11 26 -29 81 -55 47 -22 84 -46 86 -56 3 -10 29 -25 66 -39 107 -37
118 -42 128 -61 5 -11 19 -19 30 -19 19 0 156 -26 192 -36 9 -3 17 -11 17 -19
0 -14 37 -24 190 -51 19 -4 42 -12 50 -19 15 -12 103 -31 188 -41 24 -2 50
-11 58 -19 20 -20 128 -34 314 -41 52 -2 122 -8 155 -13 85 -14 131 -20 199
-26 89 -7 299 -35 308 -41 4 -3 8 -11 8 -18 0 -10 -30 -12 -137 -9 -188 5
-288 18 -330 44 -44 27 -56 16 -18 -16 l30 -25 -70 1 c-57 1 -79 7 -121 30
-62 35 -85 38 -59 9 19 -21 19 -21 -39 -16 -32 2 -65 11 -75 20 -19 18 -41 21
-41 7 0 -5 5 -11 12 -13 18 -6 -1 -28 -25 -28 -12 0 -47 13 -77 30 -67 36 -85
38 -45 5 l30 -25 -70 5 c-48 4 -79 12 -97 25 -33 24 -57 27 -38 5 10 -12 6
-14 -32 -11 -23 2 -47 5 -53 6 -20 4 -36 0 -31 -9 3 -5 -46 -7 -112 -4 -108 4
-121 7 -165 34 -48 29 -88 31 -48 2 12 -8 21 -17 21 -21 0 -11 -83 -1 -99 12
-8 6 -34 12 -59 13 -25 1 -50 7 -55 12 -6 6 -20 11 -32 11 -19 -1 -19 -1 -2
-14 27 -20 21 -23 -35 -19 -53 4 -75 14 -116 53 -13 12 -30 19 -39 16 -12 -5
-11 -10 11 -27 31 -25 27 -38 -11 -33 -16 2 -52 6 -81 8 -42 3 -62 11 -99 40
-53 41 -78 38 -37 -5 l28 -29 -73 5 c-64 5 -79 10 -119 40 -49 38 -75 46 -47
15 18 -19 17 -20 -6 -21 -73 -3 -94 4 -145 47 -78 67 -105 58 -34 -11 22 -21
40 -42 40 -45 0 -3 -20 -4 -45 -3 -34 2 -61 13 -105 43 -32 22 -64 40 -69 40
-19 0 -12 -18 17 -40 l27 -21 -35 5 c-66 8 -125 29 -167 59 -52 37 -71 27 -25
-14 17 -16 32 -31 32 -33 0 -2 -26 -3 -58 -2 -53 1 -63 6 -116 49 -32 26 -62
47 -67 47 -18 0 -8 -16 28 -47 l38 -31 -66 3 c-56 2 -74 7 -113 34 -26 18 -54
31 -64 29 -13 -2 -8 -9 19 -26 20 -12 43 -30 50 -39 13 -15 8 -16 -59 -10 -65
5 -82 11 -155 56 -103 64 -133 67 -46 5 l64 -46 -73 5 c-69 4 -78 7 -148 56
-108 75 -128 70 -41 -10 l52 -48 -35 4 c-19 3 -60 8 -90 11 -30 4 -57 10 -60
14 -16 20 -77 57 -88 53 -10 -4 -6 -14 15 -35 l28 -31 -40 7 c-22 3 -58 6 -80
6 -32 0 -49 8 -85 40 -25 22 -50 40 -56 40 -23 0 -22 -13 1 -32 14 -11 23 -23
21 -27 -4 -5 -42 -6 -91 -2 -6 1 -21 11 -35 24 -39 35 -73 57 -90 57 -9 -1 0
-14 24 -35 37 -33 38 -35 15 -36 -13 -1 -35 -2 -49 -3 -14 -1 -36 5 -50 13
-40 24 -150 85 -215 120 -33 18 -67 40 -75 49 -16 17 -31 27 -110 71 -46 25
-62 40 -55 51 2 4 -31 26 -73 50 -92 51 -143 88 -139 100 1 4 -41 35 -93 68
-52 33 -99 68 -104 78 -5 11 -50 46 -99 79 -50 33 -92 67 -94 75 -3 8 -32 34
-66 57 -75 51 -109 81 -102 92 2 5 -29 32 -70 61 -41 29 -75 57 -75 62 0 4 0
11 1 14 0 4 -21 19 -48 33 -87 48 -123 77 -112 88 8 8 -16 32 -80 84 -90 73
-91 74 -70 92 25 20 20 20 66 3z m583 -120 c36 -4 74 -9 85 -13 27 -8 126 -93
120 -103 -3 -4 2 -11 11 -14 34 -13 4 -17 -52 -7 -33 5 -75 12 -94 15 -19 3
-39 11 -45 18 -6 7 -33 34 -62 60 -28 26 -48 49 -46 52 3 3 9 4 12 2 3 -2 35
-7 71 -10z m110 -1484 c0 -92 3 -269 5 -394 l4 -228 -47 -1 c-92 -3 -378 1
-457 5 -44 3 -92 5 -106 5 l-26 1 -1 365 c-1 338 0 365 16 366 9 0 24 2 32 4
8 1 51 5 95 9 44 3 91 8 105 10 33 6 143 15 260 22 52 3 97 8 99 10 15 14 19
-27 21 -174z m232 -217 c-3 -33 1 -52 18 -75 l21 -30 -70 -1 c-39 -1 -80 -1
-91 -1 -11 0 -24 0 -30 1 -11 1 -14 134 -3 144 3 4 40 7 82 7 l76 0 -3 -45z
m-922 -51 l0 -84 -187 -1 c-104 0 -246 -2 -318 -4 -303 -9 -625 -14 -625 -10
0 2 14 25 32 50 60 85 123 102 413 110 344 10 540 17 543 20 2 1 34 3 72 3
l70 0 0 -84z m-1189 43 c63 -48 31 -142 -47 -140 -41 1 -69 24 -79 64 -5 20 0
33 23 57 32 34 73 42 103 19z m17 -213 c24 -17 30 -70 12 -104 -11 -21 -67
-36 -98 -26 -24 8 -47 50 -44 84 4 54 80 81 130 46z m1173 -53 c3 0 5 -36 4
-79 -3 -74 -2 -78 19 -79 11 0 116 -3 231 -7 116 -4 250 -8 298 -9 73 -1 90
-4 98 -18 5 -10 6 -20 2 -22 -16 -10 -619 8 -655 19 -12 3 -18 15 -18 34 l0
28 -82 2 c-46 1 -128 3 -183 5 -414 13 -538 18 -590 20 -33 2 -102 4 -152 5
-51 1 -93 4 -93 6 0 2 11 20 25 40 14 20 22 40 20 44 -3 5 5 10 17 12 20 3
1044 2 1059 -1z m-1157 -182 c36 -28 35 -72 -3 -110 -34 -33 -74 -38 -111 -12
-49 33 -53 66 -14 112 32 38 87 43 128 10z m-14 -189 c10 -5 28 -24 40 -40 19
-26 20 -35 10 -64 -11 -36 -39 -55 -85 -60 -55 -6 -95 28 -95 83 0 68 71 113
130 81z m21 -239 c17 -18 29 -40 29 -56 0 -37 -50 -85 -89 -85 -73 0 -112 93
-61 148 31 33 84 30 121 -7z m279 -96 c74 -3 151 -8 170 -10 19 -2 64 -6 100
-9 64 -6 77 -8 195 -21 87 -10 125 -15 154 -20 14 -2 53 -7 86 -10 33 -4 62
-8 65 -10 3 -2 34 -6 70 -10 36 -3 72 -8 80 -10 8 -2 38 -6 65 -10 28 -3 84
-10 125 -15 41 -5 100 -12 130 -15 30 -4 66 -8 80 -10 14 -2 59 -6 100 -10 41
-3 82 -8 90 -10 8 -2 44 -6 80 -10 36 -3 93 -10 127 -14 104 -12 126 -9 133
18 11 49 70 72 222 87 l60 6 46 -49 c25 -26 57 -56 71 -65 l25 -17 -30 -7
c-16 -4 -49 -8 -74 -8 -36 -1 -46 3 -55 21 -19 38 -49 73 -62 73 -19 0 -16
-11 12 -40 75 -78 0 -184 -115 -165 -40 7 -85 42 -95 76 -4 10 -11 19 -16 19
-14 0 -11 -36 10 -90 l19 -51 -56 6 c-48 5 -148 18 -227 30 -11 2 -42 6 -70
10 -27 3 -57 8 -65 10 -8 2 -40 7 -70 10 -30 3 -66 8 -80 10 -14 2 -43 7 -65
10 -23 3 -52 8 -65 10 -14 3 -50 9 -80 15 -30 5 -66 12 -80 15 -14 3 -50 7
-80 10 -30 3 -66 8 -80 10 -14 3 -50 7 -80 10 -103 11 -271 34 -360 50 -87 15
-160 26 -192 30 -21 2 -50 6 -65 9 -15 3 -57 8 -93 12 -36 4 -76 8 -90 10 -14
2 -56 6 -95 9 -179 14 -204 22 -149 48 20 10 48 31 61 46 18 20 33 27 51 25
15 -1 88 -5 162 -9z m-281 -140 c24 -14 39 -67 29 -95 -17 -50 -90 -69 -129
-34 -39 35 -27 116 19 132 30 10 62 9 81 -3z m29 -231 c25 -29 23 -77 -6 -106
-47 -46 -147 -3 -136 59 15 81 89 106 142 47z m352 -149 c217 -37 294 -51 415
-79 113 -26 123 -28 235 -45 36 -6 76 -13 90 -16 60 -12 77 -15 115 -20 22 -3
58 -11 80 -17 22 -6 45 -13 50 -14 74 -21 196 -54 215 -58 125 -25 232 -46
265 -50 81 -11 112 -16 185 -30 41 -8 78 -13 81 -10 4 2 10 17 14 33 13 60 86
92 220 96 73 3 96 0 128 -17 37 -18 42 -30 14 -34 -7 -1 -30 -7 -52 -13 -23
-6 -51 -9 -64 -6 -18 3 -21 1 -16 -13 4 -9 9 -35 12 -57 5 -50 -24 -90 -81
-109 -48 -16 -88 -7 -126 29 -34 32 -40 32 -40 -5 0 -18 11 -42 28 -61 24 -27
35 -31 85 -34 40 -1 76 -12 123 -35 36 -17 72 -33 80 -34 39 -6 139 -107 117
-119 -5 -2 -35 -1 -68 2 l-60 6 -5 44 c-4 31 -12 48 -28 59 -23 15 -24 15 -19
-16 6 -39 -10 -96 -34 -118 -39 -35 -141 -33 -181 3 -24 22 -42 85 -34 117 4
15 16 36 27 47 11 11 19 22 17 23 -13 11 -600 149 -683 161 -76 10 -163 31
-280 68 -73 23 -295 84 -334 92 -26 5 -283 67 -321 77 -19 5 -51 13 -70 17
-151 35 -387 96 -393 101 -19 16 107 73 138 63 6 -1 75 -14 155 -28z m-363
-41 c8 -11 13 -36 11 -59 -4 -51 -35 -70 -91 -54 -59 16 -76 71 -34 113 29 29
92 29 114 0z"/>
<path d="M4690 6230 c0 -11 5 -20 10 -20 6 0 10 9 10 20 0 11 -4 20 -10 20 -5
0 -10 -9 -10 -20z"/>
<path d="M3613 5696 c9 -7 37 -16 62 -19 32 -5 61 -20 105 -53 33 -26 60 -48
60 -49 0 -1 -28 1 -152 9 -54 4 -68 2 -68 -10 0 -9 12 -14 38 -15 20 0 53 -2
72 -4 19 -2 107 -6 195 -10 88 -3 187 -8 221 -11 33 -2 95 -6 137 -8 51 -2 83
-8 94 -18 12 -10 41 -16 83 -17 57 -2 68 -5 93 -31 20 -20 40 -30 61 -31 17 0
38 -2 46 -3 8 -2 57 -6 107 -10 l93 -7 -21 35 -21 36 54 -6 c29 -3 56 -8 61
-11 4 -2 7 2 7 10 0 20 49 10 77 -15 16 -15 39 -21 88 -23 43 -2 76 -10 93
-22 20 -13 49 -18 112 -20 66 -1 87 -5 97 -19 7 -10 29 -18 53 -20 35 -3 39
-1 31 14 -9 16 -2 17 82 14 57 -2 98 -9 107 -17 20 -17 150 -27 144 -10 -3 8
4 11 23 9 15 -1 49 -2 75 -3 28 -1 53 -7 63 -17 17 -18 125 -28 125 -12 0 11
119 4 165 -9 17 -5 53 -8 80 -7 28 1 54 -1 60 -4 13 -8 33 -10 130 -12 97 -2
106 -1 80 9 -11 4 -58 9 -104 10 -73 1 -87 5 -114 27 -31 26 -49 26 -27 -1 11
-13 6 -15 -34 -15 -26 0 -57 5 -69 11 -11 7 -47 12 -79 12 -50 1 -61 4 -85 29
-15 15 -31 28 -37 28 -5 0 0 -10 12 -23 l22 -24 -22 -10 c-43 -20 -70 -13
-115 27 -46 43 -56 48 -47 25 4 -8 10 -15 15 -15 5 0 9 -4 9 -9 0 -5 -15 -7
-32 -5 -18 1 -49 3 -69 3 -27 1 -47 10 -75 36 -22 19 -43 35 -48 35 -10 0 42
-62 57 -68 20 -10 3 -18 -33 -16 -33 2 -47 10 -84 48 -46 50 -82 64 -47 20 27
-35 26 -41 -5 -40 -14 1 -34 13 -44 26 -10 14 -22 22 -26 18 -4 -4 -1 -14 6
-23 11 -13 8 -15 -22 -15 -27 0 -39 7 -57 31 -27 36 -40 32 -16 -5 12 -18 14
-26 5 -26 -10 0 -10 -3 0 -15 10 -12 9 -15 -7 -15 -11 0 -38 21 -62 46 -23 25
-45 43 -48 40 -4 -3 2 -15 12 -26 18 -20 18 -20 -52 -20 -69 0 -72 1 -137 50
-74 55 -105 67 -54 20 l33 -30 -48 2 c-42 1 -54 7 -94 45 -47 44 -81 60 -47
21 l19 -21 -32 6 c-24 5 -33 3 -33 -7 0 -10 -13 -11 -56 -5 -31 4 -57 9 -58
11 -1 2 -12 17 -24 34 -16 24 -29 31 -57 32 -21 1 -33 -3 -30 -8 3 -6 16 -10
29 -10 15 0 33 -15 57 -47 56 -77 56 -75 7 -71 -42 3 -49 7 -99 66 -31 36 -44
25 -15 -13 15 -19 23 -35 19 -36 -32 -4 -88 5 -97 15 -6 7 -33 36 -61 65 l-50
52 38 -5 c20 -2 37 0 37 4 0 5 -22 12 -48 16 -39 5 -58 15 -95 50 -26 24 -54
44 -63 44 -10 0 18 -34 70 -86 47 -47 86 -87 86 -90 0 -8 -103 5 -109 14 -19
25 -152 134 -158 128 -4 -3 17 -31 47 -61 l53 -54 -44 4 c-24 2 -75 7 -113 10
-64 5 -73 9 -122 50 -54 46 -105 78 -112 70 -3 -3 12 -24 32 -49 20 -24 36
-47 36 -51 0 -4 -29 -5 -64 -3 -60 4 -67 8 -144 67 -77 59 -84 63 -144 67 -54
3 -61 2 -45 -10z m447 -121 c7 -9 11 -17 8 -20 -2 -2 -12 4 -21 15 -9 11 -13
20 -8 20 5 0 14 -7 21 -15z"/>
<path d="M3930 5494 c0 -1 27 -23 61 -48 52 -39 59 -50 29 -48 -115 9 -220 10
-220 2 0 -16 80 -27 217 -29 28 -1 58 -7 65 -14 44 -43 70 -54 120 -56 29 -1
79 -3 111 -6 31 -3 57 -1 57 4 0 4 -20 25 -45 47 -24 21 -45 42 -45 47 0 4 20
5 45 3 34 -4 54 -14 85 -42 70 -65 73 -66 169 -62 56 2 92 -1 99 -8 6 -7 48
-12 98 -13 50 -1 94 -7 102 -13 17 -15 22 -15 152 -24 l105 -7 -22 25 -23 24
63 -4 c48 -3 68 -9 87 -27 25 -24 53 -30 177 -40 45 -3 62 -1 60 7 -2 14 82
20 99 7 5 -5 43 -10 83 -13 62 -4 72 -3 67 10 -3 8 -2 13 2 10 4 -2 27 -5 52
-7 25 -1 56 -9 70 -17 33 -21 141 -27 134 -8 -4 11 3 12 35 6 22 -4 47 -12 54
-18 18 -15 117 -26 117 -12 0 17 78 12 98 -7 12 -13 32 -18 72 -17 88 3 88 3
70 14 -21 14 60 6 88 -9 27 -14 116 -15 107 -1 -8 12 33 7 62 -8 23 -12 183
-16 165 -4 -7 5 -40 10 -74 11 -53 2 -64 6 -97 36 -62 57 -84 75 -93 75 -4 0
12 -20 36 -44 l45 -43 -65 -7 c-63 -6 -66 -6 -111 29 -47 36 -75 41 -32 6 l24
-20 -42 4 c-26 2 -52 13 -65 26 -32 30 -68 53 -74 46 -6 -5 67 -77 79 -77 4 0
7 -4 7 -8 0 -5 -14 -9 -32 -10 -23 -1 -45 9 -74 34 -23 19 -48 34 -55 34 -7 0
-4 -6 7 -15 15 -11 16 -15 4 -16 -8 0 -25 -2 -37 -3 -14 -2 -34 9 -55 31 -17
18 -39 33 -47 33 -10 0 -4 -11 17 -33 18 -18 32 -37 32 -41 0 -19 -66 6 -92
34 -15 17 -32 30 -39 30 -7 0 -5 -8 7 -21 l19 -21 -40 7 c-27 5 -54 20 -82 48
-52 50 -57 38 -8 -17 19 -22 35 -41 35 -43 0 -2 -16 -3 -35 -1 -26 1 -45 13
-77 45 -49 50 -89 61 -42 12 l29 -31 -59 7 c-50 5 -64 12 -86 37 -15 17 -33
29 -39 27 -8 -3 -1 -16 18 -34 17 -17 31 -33 31 -37 0 -4 -20 -6 -43 -4 -34 1
-54 11 -89 39 -54 44 -86 50 -37 7 l34 -30 -45 0 c-36 0 -50 6 -76 31 -18 17
-38 29 -45 27 -9 -3 -6 -10 10 -24 12 -10 27 -26 32 -36 8 -15 1 -16 -69 -11
-76 5 -78 6 -127 54 -28 27 -57 49 -64 49 -11 0 -10 -5 4 -20 17 -19 16 -19
-45 -16 -52 3 -68 8 -92 31 -38 36 -49 24 -12 -13 67 -66 68 -64 -32 -57 -96
7 -94 6 -171 98 -13 15 -30 27 -40 27 -13 0 -11 -7 13 -32 16 -18 32 -34 37
-36 4 -2 7 -7 7 -11 0 -6 -30 -7 -130 -2 -15 1 -46 21 -78 51 -29 28 -61 50
-70 50 -12 -1 -2 -15 31 -45 l49 -45 -75 0 c-79 0 -75 -2 -158 75 -33 30 -44
34 -118 40 l-82 6 51 -47 c55 -51 62 -66 28 -60 -13 3 -48 5 -78 5 -54 1 -56
2 -150 85 -52 47 -103 84 -112 83 -10 -1 -18 -2 -18 -3z"/>
<path d="M6223 5373 c9 -9 20 -13 24 -9 4 4 1 11 -7 16 -25 16 -35 11 -17 -7z"/>
<path d="M4215 5225 c88 -77 102 -85 153 -90 46 -4 92 -21 92 -35 0 -3 -61 -4
-135 -3 -85 2 -135 -1 -135 -7 0 -12 -16 -11 169 -14 l153 -2 -31 28 -31 28
40 0 c29 0 39 4 34 12 -8 13 12 3 39 -20 13 -11 45 -15 127 -16 l109 -1 -34
35 c-19 20 -35 38 -35 42 0 3 17 4 38 1 37 -3 64 -26 128 -108 12 -16 26 -26
30 -22 4 3 1 13 -6 22 -10 13 -9 15 8 15 11 0 41 -22 68 -50 26 -27 55 -50 63
-50 11 1 8 8 -11 25 -16 13 -28 25 -28 27 0 2 41 3 90 3 65 0 93 -4 99 -13 5
-9 33 -15 75 -17 59 -2 66 -1 61 15 -5 16 0 17 45 13 33 -3 58 -11 71 -24 16
-16 29 -19 62 -15 23 2 55 5 70 5 18 1 26 5 21 12 -5 8 3 10 27 5 19 -4 68 -8
110 -9 42 -1 82 -7 90 -13 17 -14 209 -27 209 -14 0 4 -6 10 -12 13 -7 2 8 3
33 2 25 -1 58 -10 73 -20 34 -22 218 -31 210 -11 -3 9 14 12 58 11 50 0 70 -6
96 -25 28 -21 45 -25 113 -25 43 -1 79 3 79 7 0 14 72 9 84 -6 10 -13 70 -20
141 -17 17 1 17 3 5 11 -12 8 -10 10 10 11 38 2 54 -2 70 -16 21 -19 250 -40
250 -23 0 4 -3 8 -7 9 -5 0 -37 2 -72 5 -36 2 -72 10 -80 17 -31 27 -45 32
-38 14 11 -29 -20 -19 -59 18 -39 39 -82 52 -49 15 18 -20 17 -20 -14 -20 -24
0 -43 11 -79 46 -49 48 -82 71 -82 57 0 -5 25 -33 55 -63 30 -30 55 -57 55
-61 0 -3 -16 -5 -36 -4 -26 2 -47 13 -73 36 -74 69 -91 82 -98 76 -4 -4 9 -23
27 -42 l34 -35 -32 0 c-26 0 -44 11 -86 53 -51 50 -76 66 -76 48 0 -5 17 -24
38 -43 20 -19 45 -44 55 -55 18 -20 17 -20 -35 -21 -51 -1 -55 1 -118 58 -36
33 -74 60 -85 60 -17 0 -15 -5 14 -30 18 -17 30 -30 25 -31 -58 -6 -67 -3
-130 43 -60 43 -84 56 -84 44 0 -2 23 -23 51 -45 33 -26 45 -41 34 -41 -10 0
-15 -5 -12 -12 3 -10 -12 -13 -59 -12 -60 0 -65 2 -119 50 -73 63 -94 78 -101
71 -4 -3 13 -24 37 -47 l44 -40 -45 2 c-36 2 -53 10 -92 45 -44 39 -68 52 -68
38 0 -3 23 -27 52 -54 l52 -49 -68 3 c-66 4 -69 5 -132 60 -35 31 -69 55 -75
53 -6 -2 7 -20 30 -41 23 -20 41 -39 41 -42 0 -3 -25 -5 -56 -5 -52 0 -61 3
-121 51 -35 27 -71 49 -79 47 -9 -2 3 -17 32 -40 26 -21 44 -39 40 -39 -3 -1
-10 -3 -16 -4 -5 -1 -16 -3 -22 -4 -9 -1 -8 -4 2 -11 11 -7 -1 -10 -41 -10
-56 0 -56 0 -119 65 -34 36 -69 65 -76 63 -9 -2 1 -19 27 -46 l41 -43 -36 4
c-20 2 -44 13 -53 24 -72 82 -102 112 -106 106 -3 -5 16 -31 41 -59 27 -30 48
-62 48 -77 2 -22 -2 -25 -33 -23 -29 2 -43 13 -89 69 -31 37 -60 65 -65 61 -5
-3 7 -25 26 -48 19 -24 35 -45 35 -47 0 -2 -19 -5 -42 -5 -37 -2 -46 3 -78 39
-20 22 -42 38 -50 35 -8 -2 -2 -14 19 -35 38 -39 38 -43 3 -43 -17 0 -38 10
-52 25 -16 17 -34 25 -56 25 -26 0 -40 9 -71 44 -41 46 -48 49 -128 47 l-49
-1 38 -39 38 -39 -80 3 c-80 3 -80 3 -147 55 -36 29 -78 54 -93 56 -24 2 -22
-1 23 -41 l49 -45 -60 4 c-32 2 -73 5 -89 5 -22 1 -46 15 -85 51 -30 27 -64
50 -75 50 -16 0 -12 -7 20 -35z"/>
<path d="M4390 5032 c0 -4 22 -23 49 -42 27 -19 47 -38 45 -41 -2 -4 -21 -3
-43 1 -31 5 -38 4 -34 -7 3 -7 10 -13 17 -14 166 -7 227 -17 261 -43 27 -21
44 -25 111 -26 101 -2 102 -2 84 10 -10 7 11 9 70 4 123 -8 600 -12 600 -4 0
6 52 5 142 -4 22 -2 39 1 41 9 8 19 84 11 117 -14 25 -18 45 -22 113 -23 45
-1 94 -7 108 -14 18 -9 77 -12 216 -10 167 3 196 1 230 -15 32 -15 57 -18 152
-14 103 4 118 2 155 -18 42 -22 75 -25 274 -26 41 0 80 -5 87 -11 9 -8 37 -10
78 -6 36 3 67 3 70 -1 12 -11 240 -15 233 -4 -4 6 -33 10 -65 9 -46 -2 -63 3
-86 20 -15 12 -32 19 -37 16 -6 -4 -6 -9 2 -14 7 -4 8 -10 3 -13 -18 -11 -44
0 -88 37 -48 39 -63 36 -19 -5 l26 -24 -39 -5 c-43 -7 -61 0 -122 47 -54 41
-76 44 -30 3 19 -16 32 -30 29 -31 -3 -1 -27 -2 -55 -4 -45 -2 -56 3 -105 39
-30 23 -61 47 -68 54 -7 6 -21 12 -30 12 -10 0 -4 -9 18 -27 18 -16 45 -38 59
-50 l26 -22 -56 2 c-48 2 -68 10 -152 61 -54 33 -100 56 -103 53 -3 -3 12 -17
34 -31 58 -36 60 -46 10 -47 -24 0 -68 -2 -98 -3 -42 -3 -64 2 -95 19 -39 22
-57 24 -235 27 -8 0 -25 10 -37 21 -26 24 -31 12 -6 -15 15 -17 13 -18 -68
-18 l-85 0 -39 41 c-22 22 -49 45 -60 51 -13 7 -8 -2 13 -24 17 -19 32 -36 32
-39 0 -3 -47 -3 -141 0 -9 1 -34 18 -56 39 -40 39 -73 58 -73 43 0 -5 7 -11
15 -15 31 -11 14 -21 -37 -22 -45 0 -56 4 -76 28 -35 42 -60 37 -27 -6 l26
-34 -77 4 c-63 3 -82 8 -109 29 -19 14 -41 25 -51 25 -12 0 -6 -9 19 -27 20
-16 36 -31 37 -34 0 -3 -21 -4 -47 -3 -27 1 -68 3 -93 3 -36 1 -52 7 -77 31
-29 27 -53 38 -53 25 0 -3 14 -18 31 -33 l30 -27 -119 1 -119 2 -47 36 c-56
42 -86 48 -38 7 17 -15 32 -29 32 -32 0 -3 -66 -3 -131 0 -8 1 -40 23 -70 51
-29 27 -61 50 -69 50 -8 0 15 -27 50 -60 l65 -60 -53 2 c-45 1 -62 8 -110 44
-31 23 -68 45 -82 48 l-25 7 25 -20 25 -21 -42 4 c-29 3 -57 16 -98 47 -54 41
-85 56 -85 41z"/>
<path d="M5030 4831 c0 -5 16 -19 35 -31 19 -12 35 -24 35 -27 0 -10 -87 1
-109 15 -14 8 -48 15 -77 16 -29 1 -56 5 -60 9 -4 4 -14 7 -23 7 -12 0 -11 -3
3 -13 16 -12 13 -13 -25 -12 -24 0 -56 9 -71 19 -15 10 -33 16 -39 14 -6 -2 5
-15 24 -28 37 -25 41 -42 8 -33 -10 3 -22 0 -25 -6 -5 -7 10 -11 45 -11 45 0
50 2 39 15 -11 13 -7 15 34 13 26 0 49 -5 52 -10 3 -4 13 -8 22 -7 11 0 12 3
5 6 -7 2 -13 9 -13 14 0 15 54 10 79 -7 14 -10 51 -19 89 -21 36 -2 74 -9 85
-14 24 -13 259 -8 253 6 -5 14 163 12 189 -2 11 -6 49 -10 85 -9 36 1 74 -3
85 -9 26 -15 236 -20 244 -6 12 19 113 19 146 0 22 -13 63 -19 155 -23 69 -3
169 -8 223 -12 56 -4 97 -2 97 3 0 20 71 -1 107 -32 35 -29 48 -34 119 -40 43
-4 88 -9 98 -11 11 -2 25 1 32 7 18 15 194 5 230 -13 18 -9 65 -16 123 -17 56
-1 108 -8 130 -17 19 -8 60 -15 91 -15 149 0 262 -9 293 -23 36 -17 297 -30
297 -15 0 5 21 10 48 10 46 2 46 2 -14 9 -33 3 -75 14 -94 23 -18 9 -43 17
-54 16 -16 0 -12 -5 16 -18 21 -10 40 -20 43 -23 3 -2 -39 -3 -92 0 -87 3
-105 8 -166 39 -91 46 -117 55 -117 43 0 -6 11 -15 24 -20 45 -17 35 -26 -27
-22 -50 2 -75 11 -131 43 -79 45 -110 47 -50 4 21 -16 43 -32 47 -36 5 -3 -11
-5 -35 -4 -26 1 -69 16 -112 39 -81 42 -98 45 -66 11 l23 -25 -78 5 c-43 2
-81 8 -84 12 -8 11 -99 53 -113 53 -9 0 -9 -3 0 -12 17 -17 15 -27 -5 -24 -10
2 -49 7 -86 10 -37 4 -79 12 -92 18 -28 13 -48 2 -25 -13 10 -6 -7 -8 -53 -5
-55 4 -76 11 -114 38 -40 27 -57 32 -110 34 -35 1 -60 -2 -57 -7 3 -6 -29 -7
-77 -4 -64 4 -87 9 -104 25 -29 27 -55 27 -30 0 18 -19 17 -20 -78 -15 -58 2
-108 10 -125 19 -17 9 -61 16 -110 17 -65 1 -85 6 -98 20 -10 11 -23 19 -31
19 -7 0 -13 5 -13 10 0 6 -10 10 -22 10 -21 0 -20 -3 12 -30 19 -16 38 -30 43
-30 4 0 7 -4 7 -10 0 -14 -147 -12 -173 2 -12 7 -56 13 -97 14 -63 0 -82 5
-117 27 -23 15 -45 23 -48 17 -3 -5 3 -13 12 -19 13 -7 -7 -10 -71 -10 -73 0
-94 3 -116 19 -16 11 -33 20 -39 20 -20 0 -11 -20 14 -32 40 -18 20 -26 -63
-24 -72 1 -81 4 -127 37 -55 39 -85 53 -85 40z"/>
<path d="M3777 4493 c-2 -1 -103 -10 -147 -12 -13 -1 -15 -16 -14 -87 1 -47 5
-91 7 -98 3 -8 26 -12 73 -10 38 1 83 3 99 3 l31 1 0 105 c0 104 0 104 -23
103 -13 -2 -25 -3 -26 -5z"/>
<path d="M3477 4464 c-1 -2 -28 -4 -59 -5 -83 -3 -81 0 -79 -121 l1 -66 53 3
c28 2 76 4 104 5 l53 0 -2 93 -1 94 -33 0 c-19 0 -35 -2 -37 -3z"/>
<path d="M3693 4252 c-83 -3 -80 2 -75 -135 l4 -78 104 2 104 1 -2 104 c-1 57
-4 104 -8 105 -17 3 -64 4 -127 1z"/>
<path d="M3363 4242 c-22 -3 -23 -7 -23 -106 l0 -103 103 1 102 1 3 106 3 106
-83 -1 c-46 -1 -93 -2 -105 -4z"/>
<path d="M3354 3995 c-10 -7 -13 -33 -11 -95 l4 -85 103 0 104 0 -3 90 c-1 49
-4 92 -7 94 -9 9 -177 6 -190 -4z"/>
<path d="M3625 4000 c-1 -3 -2 -48 -1 -100 l2 -95 107 -1 107 -1 -4 91 c-2 50
-5 96 -5 103 -1 8 -31 11 -102 10 -55 -1 -102 -4 -104 -7z"/>
<path d="M1237 7826 c-28 -21 -57 -118 -62 -208 -2 -46 -7 -126 -10 -179 -10
-164 -56 -293 -165 -454 -27 -41 -50 -79 -50 -85 0 -5 11 -10 24 -10 12 0 38
-5 56 -11 32 -12 32 -12 27 -64 -8 -81 -57 -175 -276 -534 -55 -90 -63 -126
-32 -136 11 -3 58 -3 105 0 107 7 108 2 26 -110 -32 -44 -76 -109 -96 -145
-20 -36 -54 -81 -74 -100 -74 -72 -143 -181 -121 -194 10 -6 63 -14 156 -21
67 -5 94 -20 75 -39 -6 -6 -10 -16 -10 -24 0 -8 -6 -28 -14 -45 -119 -263
-121 -266 -192 -348 -94 -110 -154 -189 -154 -204 0 -21 35 -28 150 -31 143
-3 132 -1 120 -24 -21 -39 -126 -144 -204 -203 -44 -33 -87 -68 -96 -76 -9 -9
-50 -45 -91 -81 -145 -128 -196 -187 -185 -215 3 -8 17 -15 31 -15 15 0 25 -6
25 -14 0 -24 21 -30 98 -28 79 3 103 -7 97 -39 -2 -11 4 -23 15 -29 15 -8 25
-4 52 24 41 41 71 51 108 36 27 -11 34 -9 87 29 32 22 80 47 106 55 26 8 63
28 82 45 20 17 46 31 59 31 25 0 48 23 89 87 26 41 84 93 104 93 15 0 92 86
103 116 23 60 4 80 -46 48 -22 -15 -21 -10 15 52 46 79 79 117 120 139 16 8
40 29 54 46 l25 32 78 -80 c54 -54 85 -78 97 -75 10 2 30 -4 44 -14 29 -18
108 -23 124 -7 12 12 13 40 4 71 -5 15 -3 22 7 22 7 0 29 13 48 29 l35 28 -37
37 c-20 20 -44 36 -54 36 -10 0 -42 26 -71 58 -55 60 -62 58 -44 -19 5 -21 5
-43 0 -50 -12 -19 -66 34 -90 89 -24 54 -39 54 -37 -3 0 -26 -6 -55 -16 -70
-31 -46 -50 -27 -52 53 -1 29 -4 55 -7 58 -3 4 -18 -7 -32 -22 l-25 -29 5 60
c5 58 5 59 -9 30 -8 -16 -17 -41 -20 -55 -7 -34 -57 -110 -73 -110 -8 0 -4 21
14 68 54 142 36 154 -33 22 -25 -47 -49 -89 -54 -94 -21 -21 -20 5 3 60 31 77
40 114 27 114 -5 0 -21 -22 -35 -49 -29 -59 -50 -77 -43 -37 9 47 -27 23 -63
-42 -29 -52 -45 -54 -42 -6 4 54 51 133 89 149 36 15 134 110 150 146 6 13 23
49 37 80 25 51 36 119 20 119 -3 0 -28 -14 -54 -31 -32 -20 -55 -28 -68 -24
-15 4 -26 -2 -42 -25 -13 -16 -27 -30 -32 -30 -5 0 -4 6 2 14 7 8 16 28 21 44
13 47 -15 30 -47 -29 -23 -44 -43 -62 -43 -41 0 9 67 180 79 202 13 23 67 15
114 -16 23 -16 47 -29 52 -29 17 -2 47 29 62 63 7 17 20 32 27 32 8 0 48 -23
89 -50 154 -103 257 -117 273 -36 3 19 12 40 20 47 18 15 64 3 95 -24 49 -43
169 -226 169 -258 0 -4 -27 10 -60 32 -48 33 -66 53 -97 109 -48 89 -68 100
-59 30 4 -27 4 -50 1 -50 -3 0 -17 7 -30 16 -23 15 -25 15 -32 -2 -3 -10 1
-30 10 -46 9 -15 14 -28 12 -28 -2 0 -25 11 -51 25 -63 33 -73 23 -50 -51 10
-31 16 -57 14 -59 -6 -7 -50 64 -63 102 -13 37 -38 63 -50 51 -4 -3 2 -27 14
-52 36 -82 -23 -40 -67 47 -12 25 -29 50 -37 57 -13 10 -15 9 -15 -10 0 -12 7
-47 16 -77 9 -30 14 -57 11 -59 -7 -7 -84 99 -94 131 -5 17 -14 29 -19 28 -12
-4 -11 -11 12 -135 4 -22 -12 -24 -20 -3 -7 20 -45 19 -53 -1 -18 -46 131
-227 191 -232 16 -1 65 -17 108 -36 l78 -34 35 41 c36 42 39 54 36 120 -3 43
9 47 80 21 24 -8 80 -24 125 -33 69 -16 87 -16 118 -6 21 7 40 15 42 18 8 8
-18 55 -68 122 -146 199 -163 238 -107 249 28 5 30 9 26 38 -7 61 -71 192
-103 213 -22 14 -104 130 -104 146 0 5 17 17 39 28 62 32 62 82 2 147 -19 20
-53 47 -75 62 -68 42 -127 127 -141 203 -6 33 -4 37 18 43 31 7 51 54 42 95
-3 17 -41 84 -84 149 -47 72 -84 143 -95 178 -52 175 -90 286 -126 363 -52
115 -65 194 -48 311 20 137 20 160 4 185 -18 28 -51 32 -79 11z m8 -192 c2
-21 7 -87 10 -146 6 -111 15 -150 59 -236 18 -36 32 -52 46 -52 20 0 40 -27
40 -54 0 -22 -26 -20 -61 5 -32 22 -89 113 -89 141 0 9 -3 19 -7 21 -5 3 -6
-15 -4 -40 2 -31 -2 -50 -14 -63 -14 -15 -15 -22 -4 -42 13 -26 58 -83 113
-143 20 -22 47 -63 61 -91 13 -28 49 -83 80 -122 30 -39 55 -73 55 -76 0 -14
-38 -5 -44 10 -3 9 -12 14 -20 11 -20 -8 -43 21 -62 75 -17 50 -47 88 -69 88
-8 0 -16 6 -17 13 0 6 -4 -8 -7 -33 -12 -93 -54 -24 -60 98 l-1 23 -26 -20
c-28 -22 -64 -28 -64 -11 0 6 7 25 16 43 l17 32 -34 -26 c-68 -51 -68 -49 -26
61 39 105 55 187 62 320 7 140 9 166 20 228 8 51 24 44 30 -14z m-10 -766 c4
-18 28 -73 54 -123 53 -102 55 -127 10 -118 -17 3 -35 0 -44 -7 -12 -10 -15
-10 -16 4 -1 9 -3 21 -4 26 -1 6 -3 16 -4 23 -1 7 -7 5 -15 -6 -14 -18 -14
-18 -20 0 -3 10 -6 35 -8 56 l-2 38 -18 -24 c-12 -17 -25 -23 -37 -20 -14 3
-21 -2 -26 -18 -21 -65 -8 -141 35 -209 33 -52 70 -119 70 -125 0 -3 -6 -5
-14 -5 -16 0 -46 42 -46 65 0 9 -7 18 -15 21 -17 7 -71 -12 -97 -34 -33 -28
-35 -6 -6 57 43 94 30 103 -26 17 -48 -73 -121 -154 -130 -145 -3 3 12 32 32
64 40 63 72 127 72 142 0 5 13 24 28 41 30 33 70 135 78 197 3 21 10 45 17 53
11 14 103 62 119 62 3 0 9 -15 13 -32z m267 -315 c10 -9 38 -54 63 -100 25
-46 61 -106 81 -133 20 -27 34 -55 32 -61 -10 -31 -127 111 -158 191 -32 83
-38 37 -9 -68 6 -23 9 -45 6 -49 -16 -16 -63 52 -69 100 -6 41 -14 41 -39 1
-45 -74 -28 -124 95 -268 36 -43 66 -82 66 -87 0 -20 -20 -6 -81 54 -35 34
-72 67 -82 72 -10 6 -28 40 -41 79 -25 77 -51 103 -43 42 6 -48 -18 -71 -33
-31 -20 52 10 135 48 135 30 0 42 21 42 71 0 61 18 80 67 73 20 -2 45 -12 55
-21z m-662 -269 c-18 -21 -24 -10 -9 18 8 14 14 18 17 10 2 -7 -2 -19 -8 -28z
m334 -64 c18 -43 106 -142 121 -136 7 2 30 -11 51 -30 21 -19 50 -37 64 -39
14 -3 66 -19 117 -36 90 -30 117 -31 108 -6 -8 21 -13 91 -8 104 7 17 43 16
65 -1 10 -7 24 -29 32 -48 8 -19 35 -62 60 -95 61 -81 62 -113 2 -54 l-45 44
9 -37 c11 -48 -4 -46 -36 5 -25 40 -26 40 -40 21 -9 -13 -21 -18 -33 -15 -33
9 -34 -17 -2 -79 30 -59 41 -118 21 -118 -5 0 -15 9 -22 20 -14 22 -39 26 -68
10 -15 -8 -22 -2 -46 44 -15 30 -40 61 -55 70 -18 11 -30 30 -38 59 -14 60
-48 88 -43 36 1 -3 3 -24 6 -47 3 -23 2 -42 -3 -42 -12 0 -31 23 -31 40 0 8
-13 42 -29 75 l-30 60 6 -82 c7 -101 -6 -107 -37 -20 -27 72 -41 94 -31 46 11
-56 8 -134 -6 -134 -7 0 -20 -10 -28 -22 -9 -13 -25 -23 -35 -23 -16 0 -19 5
-14 33 3 17 9 43 13 57 12 39 14 130 3 130 -5 0 -21 -10 -36 -21 -20 -15 -31
-18 -38 -11 -8 8 -2 20 21 42 31 31 41 73 21 85 -18 11 -40 -15 -80 -94 -21
-42 -47 -87 -58 -101 l-21 -25 4 24 c2 13 12 43 21 67 9 23 14 48 12 54 -4 12
-20 -10 -81 -107 -16 -25 -41 -49 -60 -57 -17 -7 -41 -23 -51 -35 -24 -26 -36
-27 -29 -1 3 11 9 20 13 20 11 0 41 47 45 72 5 23 49 100 69 120 7 8 31 45 53
84 24 42 47 70 58 73 11 2 24 10 28 18 10 16 36 28 73 31 19 1 28 -5 38 -28z
m-62 -535 c-4 -37 -130 -287 -141 -281 -5 3 -12 23 -16 43 -8 45 -16 34 -39
-55 -9 -35 -28 -79 -43 -99 -38 -49 -42 -22 -7 46 27 55 35 81 27 94 -9 16
-35 -18 -91 -121 -31 -58 -74 -123 -96 -146 -21 -23 -31 -30 -22 -16 32 50 58
103 62 128 16 89 147 305 199 330 11 5 49 33 84 61 35 28 69 50 75 48 6 -2 10
-17 8 -32z m-216 -753 c-34 -47 -35 -49 -18 -73 30 -44 47 -60 72 -74 23 -12
33 -10 94 16 76 33 95 30 70 -9 -18 -30 -99 -108 -127 -124 -17 -9 -18 -6 -16
34 l3 43 -37 -3 c-28 -3 -37 0 -37 12 0 29 -26 17 -82 -38 -73 -71 -128 -139
-128 -159 0 -12 9 -14 45 -10 34 3 50 0 73 -17 24 -18 40 -21 80 -19 57 4 57
5 -17 -44 -58 -38 -81 -39 -81 -1 0 33 -18 30 -81 -14 -77 -54 -79 -55 -79
-40 0 7 14 28 30 47 17 18 30 35 30 37 0 14 -45 -2 -96 -32 -111 -68 -124 -74
-124 -61 0 6 26 39 58 73 118 124 183 204 165 204 -4 0 -26 -17 -48 -38 -22
-20 -55 -47 -72 -59 -31 -22 -208 -130 -228 -140 -5 -3 17 21 50 52 122 115
359 341 384 366 34 33 140 119 147 119 3 0 -10 -22 -30 -48z"/>
<path d="M912 5970 c-33 -57 -37 -70 -24 -70 11 0 64 99 59 113 -2 7 -18 -13
-35 -43z"/>
<path d="M3061 7140 c-19 -28 -48 -61 -65 -74 -33 -25 -42 -66 -30 -134 5 -33
7 -34 40 -28 19 4 34 3 34 -2 0 -23 85 -36 129 -21 36 13 47 34 66 123 15 73
14 96 -4 96 -10 0 -30 -39 -36 -68 -14 -75 -38 -81 -43 -11 -4 61 -17 70 -47
35 -29 -34 -31 -23 -10 54 26 97 17 105 -34 30z"/>
<path d="M1821 5267 c-6 -8 -13 -31 -16 -53 -2 -21 -7 -60 -11 -85 -11 -83 33
-140 101 -130 10 2 35 16 54 32 20 16 41 29 48 29 8 0 11 21 10 70 -2 56 -6
72 -22 84 -11 9 -26 16 -34 16 -7 0 -35 11 -63 25 -58 29 -53 28 -67 12z"/>
<path d="M1356 4853 c-40 -21 -58 -23 -78 -6 -14 13 -17 13 -26 -4 -10 -20 -9
-126 2 -160 4 -12 1 -31 -5 -42 -16 -25 2 -71 30 -78 11 -3 22 -16 25 -29 4
-14 17 -29 30 -34 54 -20 160 39 149 83 -16 67 -15 73 11 91 31 20 86 76 86
87 0 4 3 14 6 23 5 13 -2 16 -44 16 -41 0 -56 6 -93 35 -50 39 -53 40 -93 18z"/>
<path d="M1212 4538 c-5 -7 -22 -38 -37 -68 -52 -102 -145 -225 -145 -190 0 7
18 50 39 95 21 45 42 92 46 104 13 42 -15 20 -62 -49 -26 -39 -55 -72 -64 -75
-8 -3 -26 -23 -40 -45 -70 -117 -82 -134 -86 -122 -3 7 2 31 11 53 18 44 21
89 6 89 -5 0 -26 -35 -46 -77 -20 -43 -56 -118 -81 -166 -25 -49 -42 -95 -39
-103 3 -9 19 -14 42 -14 21 0 53 -5 71 -12 32 -12 35 -11 57 17 23 28 26 29
56 18 27 -10 38 -8 83 13 29 13 62 24 75 24 43 0 110 77 162 185 26 55 51 116
55 135 l7 35 -26 -24 c-21 -20 -28 -22 -41 -11 -13 11 -19 9 -38 -9 -51 -47
-60 -19 -20 60 14 30 28 75 31 101 5 50 2 57 -16 36z"/>
<path d="M6036 4018 c1 -249 5 -574 8 -723 11 -525 17 -1035 12 -1043 -5 -9
-103 2 -113 12 -5 4 -4 605 1 854 l2 134 -75 -6 c-42 -3 -89 -7 -106 -10 -28
-4 -109 -12 -215 -22 -25 -2 -63 -6 -85 -9 -22 -2 -76 -7 -120 -10 -44 -3 -96
-8 -115 -10 -19 -3 -74 -7 -121 -10 -47 -4 -94 -8 -105 -10 -10 -2 -24 -4 -30
-4 -6 -1 -14 -18 -18 -38 -7 -41 -36 -80 -78 -107 -39 -25 -33 -70 15 -106 36
-27 36 -27 114 -14 43 6 155 22 248 34 94 12 182 23 196 26 15 2 47 6 70 9 24
3 55 7 69 10 14 2 43 7 65 9 112 14 176 23 218 32 24 5 27 3 27 -19 0 -30 -15
-34 -190 -52 -30 -3 -71 -8 -90 -10 -19 -2 -62 -7 -95 -10 -52 -5 -133 -16
-215 -30 -43 -7 -94 -15 -130 -19 -19 -2 -78 -10 -131 -16 l-96 -12 -1 -34
c-2 -46 -25 -88 -67 -121 -48 -38 -48 -79 0 -110 19 -12 45 -20 57 -18 13 2
41 6 63 10 22 3 54 8 70 10 17 3 41 7 55 9 14 2 77 14 140 26 63 12 126 24
140 26 14 3 60 11 103 20 42 8 87 17 100 19 12 2 80 13 151 25 104 17 130 19
137 9 11 -19 -5 -34 -41 -37 -17 -1 -77 -11 -133 -22 -56 -10 -113 -21 -127
-24 -14 -2 -74 -13 -135 -24 -60 -12 -126 -24 -145 -27 -19 -3 -44 -7 -55 -9
-11 -2 -81 -14 -155 -26 -162 -27 -165 -28 -144 -58 12 -18 22 -22 42 -18 15
3 43 8 62 11 19 3 42 8 50 10 8 3 31 7 50 9 32 4 237 42 355 66 28 5 68 13 90
16 22 3 42 7 45 9 3 2 26 6 50 10 25 4 72 12 105 19 93 18 86 29 89 -136 1
-80 -1 -145 -4 -143 -6 4 -42 9 -160 25 -46 6 -87 13 -90 15 -3 2 -34 6 -70
10 -36 4 -68 9 -71 10 -3 2 -28 7 -55 10 -27 4 -56 8 -64 10 -8 2 -35 7 -60
10 -24 4 -48 9 -52 11 -3 2 -9 0 -12 -5 -8 -12 7 -21 42 -27 15 -2 43 -7 62
-10 19 -4 49 -8 65 -10 17 -2 57 -9 90 -15 33 -6 71 -12 85 -14 14 -1 34 -5
45 -8 11 -3 43 -8 70 -12 60 -7 98 -14 145 -23 33 -7 35 -10 38 -55 3 -41 6
-47 25 -48 12 0 31 -2 42 -4 70 -12 107 -12 166 1 l66 15 -1 1120 -1 1119 -85
0 -85 0 1 -452z"/>
<path d="M6247 4463 c-2 -5 -3 -33 -2 -63 2 -30 3 -69 4 -86 l1 -31 83 -2 c45
-1 91 -3 102 -5 15 -2 21 4 25 27 l5 31 125 -3 c318 -8 418 -10 457 -10 38 -1
42 -3 45 -28 3 -27 4 -28 75 -30 l71 -1 0 74 c0 41 -3 76 -7 78 -3 2 -62 7
-131 11 -69 3 -159 8 -200 11 -71 4 -120 6 -365 19 -252 14 -284 15 -288 8z"/>
<path d="M7332 3615 c1 -997 0 -1077 -10 -1071 -5 3 -27 6 -51 7 l-42 3 3 173
c2 112 -1 172 -7 170 -6 -2 -11 -74 -13 -180 -2 -164 -1 -177 15 -177 10 -1
41 -3 70 -6 34 -4 72 0 109 11 l57 16 -7 642 c-11 870 -14 1147 -15 1179 -1
26 -3 26 -55 25 l-55 -2 1 -790z"/>
<path d="M8280 4360 c-8 -5 -12 -219 -15 -796 l-3 -789 -38 4 c-22 1 -42 5
-45 7 -4 2 -6 56 -5 119 2 115 -4 154 -18 118 -7 -17 -8 -254 -2 -261 2 -2 30
-5 62 -8 44 -4 72 0 109 15 l50 19 0 788 0 789 -42 1 c-23 1 -47 -2 -53 -6z"/>
<path d="M8410 4309 c0 -42 3 -49 20 -49 13 0 20 7 20 20 0 16 6 19 35 18 36
-1 65 15 65 38 0 10 -13 14 -42 15 -24 0 -55 2 -70 4 -27 4 -28 2 -28 -46z"/>
<path d="M8925 3648 l0 -693 75 1 c41 0 85 2 97 4 l23 4 -1 683 0 683 -43 0
-43 0 -1 -587 c-1 -324 -2 -630 -2 -680 0 -90 -1 -93 -22 -93 -13 0 -33 3 -45
6 l-21 6 1 676 c1 462 -1 676 -8 679 -8 2 -11 -212 -10 -689z"/>
<path d="M1615 4280 c-8 -16 -15 -42 -15 -59 0 -26 -3 -30 -27 -28 -23 2 -28
-3 -33 -27 -5 -31 -27 -46 -35 -24 -2 7 -6 35 -9 62 -9 94 -36 83 -42 -16 -5
-76 -11 -98 -30 -98 -16 0 -16 -3 -19 76 -3 80 -12 114 -30 114 -20 0 -34 -61
-36 -160 0 -47 -3 -96 -6 -109 -6 -23 -6 -23 -20 -5 -14 18 -15 18 -32 -5 -24
-32 -51 -22 -51 18 0 36 -15 48 -29 23 -12 -22 -7 -89 10 -137 16 -43 5 -68
-32 -73 -13 -2 -39 -15 -57 -29 l-33 -25 7 29 c4 15 13 40 20 54 13 25 10 39
-7 39 -5 0 -30 -20 -56 -44 -131 -121 -141 -118 -54 15 34 50 61 96 61 100 0
25 -36 0 -148 -103 -82 -75 -99 -78 -52 -8 25 37 16 53 -19 35 -33 -17 -131
-109 -154 -145 -20 -31 -34 -154 -19 -164 6 -4 28 -7 49 -7 104 -2 96 -40 -9
-44 -32 -1 -60 -10 -88 -28 -43 -30 -45 -29 -30 23 5 19 6 37 2 41 -4 5 -36
-12 -72 -36 -36 -24 -66 -40 -68 -36 -1 5 11 34 28 65 17 31 30 61 28 67 -2 5
-48 -24 -103 -65 -55 -42 -106 -76 -114 -76 -11 0 40 74 69 100 22 20 90 105
90 112 0 11 -48 -14 -75 -39 -11 -10 -47 -41 -79 -68 -121 -102 -299 -290
-293 -308 5 -16 21 -16 85 0 66 17 76 11 68 -38 -5 -31 -3 -39 9 -39 9 0 18 7
21 15 3 8 28 28 55 46 45 28 52 30 79 19 25 -10 36 -10 64 4 19 9 47 16 63 16
16 0 53 9 83 19 29 10 59 17 65 14 20 -7 4 -55 -43 -128 -55 -86 -92 -162 -92
-193 l0 -23 29 20 c28 20 28 20 46 1 25 -28 59 -25 108 9 40 27 44 28 70 15
33 -18 54 -8 137 61 60 49 124 84 168 91 43 7 64 -24 74 -104 13 -113 15 -117
51 -117 14 0 28 -14 44 -45 38 -71 56 -73 92 -9 12 21 36 46 52 54 16 9 29 20
29 25 0 5 18 14 41 20 35 10 43 18 61 58 18 42 21 45 28 25 6 -15 15 -20 28
-16 14 3 35 -10 71 -46 50 -49 66 -56 121 -51 36 3 41 16 38 98 -2 47 2 76 9
80 17 10 27 60 15 75 -6 6 -12 23 -14 37 -1 14 -10 25 -18 25 -9 0 -16 -11
-18 -25 -6 -49 -22 -85 -44 -99 -20 -12 -24 -11 -45 15 -13 16 -28 46 -35 67
-12 39 -20 41 -25 4 -7 -42 -21 -40 -76 12 -30 28 -59 51 -66 51 -11 0 -43
-61 -40 -77 5 -32 -5 -32 -22 0 -11 21 -25 37 -32 34 -6 -2 -18 -25 -25 -51
-19 -66 -23 -59 -37 59 -11 94 -20 98 -46 17 -12 -39 -25 -70 -27 -67 -3 2 -6
53 -9 112 -2 58 -5 108 -7 110 -2 2 -16 -16 -32 -41 -23 -36 -30 -42 -35 -29
-3 10 -3 31 1 48 9 42 7 99 -4 105 -11 6 -20 -11 -37 -67 -6 -24 -21 -51 -32
-60 -19 -18 -20 -17 -14 9 4 14 10 34 14 45 4 10 -20 -6 -52 -34 -52 -47 -75
-62 -75 -49 0 2 13 33 30 68 36 75 42 121 10 73 -12 -16 -39 -64 -60 -105 -71
-134 -170 -249 -170 -197 0 6 23 53 51 102 28 50 57 102 65 117 26 50 -8 21
-91 -79 -141 -167 -145 -171 -145 -145 0 52 82 176 173 262 32 30 65 70 72 87
15 35 29 42 39 18 9 -25 41 -17 151 36 132 64 177 97 210 154 15 25 29 45 31
45 5 0 89 -37 151 -67 29 -14 57 -22 62 -18 6 3 11 23 11 44 0 54 19 101 45
111 23 9 65 86 65 119 0 11 5 32 11 48 10 27 11 27 25 9 8 -11 14 -29 14 -40
0 -12 5 -28 10 -36 9 -13 12 -12 25 4 8 11 16 18 18 15 2 -2 15 -42 29 -89
l26 -85 -1 105 c-1 58 2 158 7 222 l8 118 -55 -4 c-37 -3 -61 0 -74 9 -26 20
-31 19 -48 -15z"/>
<path d="M6519 4285 c-1 -44 2 -859 5 -1175 2 -225 6 -334 13 -333 5 1 32 5
59 9 27 3 51 8 54 10 7 8 10 1504 2 1505 -4 0 -35 1 -70 2 -56 2 -62 0 -63
-18z"/>
<path d="M6686 4291 c-2 -3 -5 -283 -5 -621 -1 -338 -2 -664 -2 -725 -1 -60 0
-116 0 -124 1 -10 11 -12 42 -8 22 3 43 8 46 11 3 3 6 335 7 738 l1 733 -43 1
c-23 1 -44 -1 -46 -5z"/>
<path d="M6799 4292 c-2 -26 -5 -1458 -2 -1463 2 -4 24 -1 50 5 l48 12 0 700
c0 384 -1 710 -3 724 -3 23 -9 26 -48 28 -24 1 -44 -2 -45 -6z"/>
<path d="M6923 4286 c-3 -5 -6 -330 -7 -723 l-1 -715 35 6 c19 3 44 7 55 10
11 2 22 5 26 5 3 1 6 160 6 354 3 680 4 1002 3 1037 l0 35 -56 0 c-31 0 -58
-4 -61 -9z m87 -680 c0 -22 -22 -37 -37 -25 -16 14 -17 36 0 42 17 6 37 -3 37
-17z"/>
<path d="M4852 4278 c-6 -8 -11 -31 -10 -52 1 -28 8 -42 28 -56 26 -19 46 -54
52 -95 3 -18 13 -20 113 -25 89 -4 110 -8 113 -21 2 -13 -13 -15 -109 -14
l-112 1 -43 -43 c-24 -23 -44 -50 -44 -60 0 -11 15 -27 36 -38 38 -20 74 -63
74 -89 0 -17 3 -18 105 -17 39 1 77 -3 85 -9 13 -9 13 -10 0 -11 -26 -3 -94
-6 -140 -8 -43 -1 -47 -3 -58 -35 -7 -19 -29 -49 -50 -67 -20 -18 -37 -40 -39
-50 -2 -11 17 -38 45 -66 52 -52 45 -50 172 -43 58 3 100 -5 100 -21 0 -5 -10
-9 -22 -10 -13 0 -41 -2 -63 -5 -22 -2 -59 -5 -82 -6 -37 -2 -42 -5 -47 -31
-3 -16 -23 -46 -43 -66 l-38 -36 48 -49 48 -48 97 7 c53 4 103 8 112 10 14 3
113 11 228 20 65 5 172 14 232 21 25 2 77 7 115 9 113 8 180 17 185 26 3 4 5
194 5 421 l0 413 -171 3 -172 2 0 -120 0 -120 61 -1 c34 0 97 0 140 0 70 0 77
-2 77 -19 0 -17 -7 -20 -42 -21 -24 0 -86 -1 -138 -2 l-95 -2 0 -110 0 -110
55 1 c30 1 94 4 143 7 65 5 87 3 88 -6 0 -7 2 -20 4 -29 3 -14 -4 -18 -33 -19
-21 -1 -73 -3 -117 -4 -44 -2 -94 -3 -112 -4 l-32 -1 3 -112 2 -113 39 1 c22
1 74 5 115 9 126 13 125 13 128 -17 2 -18 -2 -29 -10 -30 -7 0 -24 -2 -38 -3
-145 -12 -198 -16 -275 -20 -131 -8 -222 -14 -292 -21 -35 -3 -64 -2 -64 3 -6
38 -18 388 -24 659 l-6 262 386 -4 385 -3 0 34 c0 31 -3 35 -27 36 -16 0 -77
2 -138 4 -60 2 -202 6 -315 9 -113 4 -295 9 -406 12 -165 5 -202 3 -212 -8z"/>
<path d="M6249 4256 c-4 -3 -5 -173 -2 -183 3 -7 28 -10 74 -9 49 2 72 -1 80
-11 19 -22 2 -28 -79 -28 l-76 0 -1 -105 0 -105 85 0 c78 0 85 -2 85 -20 0
-16 -8 -19 -55 -21 -30 -1 -69 -2 -87 -3 l-32 -1 3 -102 3 -103 86 -1 c53 0
92 -5 99 -12 6 -6 10 -14 7 -16 -3 -3 -45 -8 -94 -12 -50 -3 -92 -10 -95 -14
-4 -6 -5 -165 -1 -191 1 -3 30 -5 66 -4 60 1 96 -7 85 -19 -3 -2 -34 -5 -70
-7 -36 -1 -69 -4 -75 -6 -6 -2 -9 -49 -7 -122 l3 -119 57 4 c31 2 69 6 84 8
27 4 47 -8 30 -18 -10 -6 -96 -18 -137 -19 -16 0 -32 -4 -35 -8 -3 -5 -5 -39
-4 -76 1 -37 2 -85 3 -106 1 -32 4 -37 19 -33 9 3 45 8 80 11 52 5 62 4 62 -9
0 -9 -8 -17 -17 -17 -32 -3 -136 -19 -140 -22 0 -1 -3 -11 -5 -22 -3 -21 3
-22 52 -11 25 6 81 19 90 21 3 1 22 5 43 10 l39 8 -6 681 c-2 374 -5 710 -5
746 l-1 65 -105 1 c-58 1 -106 1 -106 0z"/>
<path d="M8456 4234 c-9 -8 -16 -20 -16 -25 0 -5 -7 -9 -15 -9 -12 0 -15 -13
-15 -61 0 -57 1 -60 23 -57 12 2 22 10 22 18 0 8 9 16 20 16 11 1 28 2 37 3
10 1 26 10 37 22 51 55 -40 147 -93 93z"/>
<path d="M7084 4225 c-3 -8 1 -128 5 -171 1 -6 29 -10 76 -10 l75 1 -2 92 c-2
54 -7 94 -13 94 -49 6 -138 3 -141 -6z"/>
<path d="M7474 4139 c1 -82 3 -89 21 -90 29 -2 98 -6 113 -8 6 0 12 -5 12 -9
0 -4 -27 -7 -61 -7 -33 0 -65 -2 -69 -5 -5 -3 -10 -47 -13 -98 l-4 -93 66 1
c83 3 96 2 88 -7 -4 -3 -37 -8 -75 -11 -37 -2 -68 -5 -70 -6 -1 -2 -3 -45 -5
-97 l-2 -94 72 0 c76 0 115 -14 45 -16 -103 -3 -105 -4 -111 -24 -4 -11 -7
-51 -6 -90 l0 -70 35 1 c39 1 133 11 230 24 36 5 101 12 145 15 44 3 87 8 95
10 8 2 43 7 78 10 50 5 62 4 62 -8 0 -7 -6 -14 -12 -14 -7 0 -44 -3 -83 -8
-38 -4 -90 -9 -115 -11 -25 -2 -63 -6 -85 -8 -49 -6 -125 -15 -185 -21 -127
-12 -159 -18 -163 -28 -3 -10 -2 -86 2 -160 1 -17 7 -18 64 -12 34 4 71 9 82
11 11 3 40 7 65 9 25 3 56 8 70 10 14 2 45 7 70 10 25 3 74 11 110 16 36 6 88
13 115 16 28 3 53 7 58 10 4 2 7 -2 7 -10 0 -15 -26 -20 -190 -41 -19 -3 -66
-9 -105 -15 -38 -5 -92 -13 -120 -16 -27 -3 -59 -8 -70 -10 -11 -2 -49 -7 -85
-11 -36 -3 -66 -7 -68 -9 -2 -2 -5 -186 -3 -213 1 -9 10 -12 29 -8 15 3 43 8
62 11 19 3 163 27 320 53 l285 48 0 227 c0 233 0 231 -35 229 -13 0 -159 -13
-190 -17 -19 -2 -71 -6 -115 -10 -44 -3 -103 -8 -130 -11 l-51 -5 0 351 0 351
258 -3 c242 -3 258 -2 258 14 0 16 -11 18 -87 19 -49 0 -135 2 -193 4 -58 2
-175 6 -261 9 l-155 4 0 -89z"/>
<path d="M5247 4142 c-13 -3 -15 -16 -11 -90 3 -48 6 -159 9 -247 2 -88 4
-168 4 -177 1 -10 7 -15 14 -13 11 4 153 12 245 14 l32 1 0 110 0 110 -47 1
c-27 0 -84 0 -128 -1 -75 -1 -81 0 -82 19 -2 25 -14 23 132 25 l120 1 3 123
c2 94 0 122 -10 122 -75 3 -268 4 -281 2z"/>
<path d="M7704 4142 c-19 -3 -21 -10 -21 -95 l-1 -93 102 2 101 2 0 88 0 89
-80 5 c-44 3 -89 4 -101 2z"/>
<path d="M367 4122 c-15 -9 -39 -40 -52 -69 -19 -39 -47 -70 -113 -126 -152
-129 -181 -177 -108 -177 17 0 42 -7 54 -16 17 -12 37 -14 80 -10 31 4 85 8
120 11 35 3 81 14 103 26 33 16 51 19 95 13 51 -6 59 -4 117 31 80 49 127 84
127 95 0 10 -33 22 -73 25 -15 2 -35 9 -45 18 -9 8 -23 12 -31 9 -11 -4 -13 7
-8 57 4 34 9 66 12 71 15 24 -11 6 -63 -44 -76 -72 -132 -116 -149 -116 -19 0
-5 23 52 85 62 67 89 105 75 105 -29 0 -104 -50 -201 -132 -30 -27 -58 -48
-62 -48 -14 0 37 99 73 140 56 62 54 88 -3 52z"/>
<path d="M7912 4048 c1 -72 4 -88 17 -89 9 0 51 -2 94 -3 l78 -2 -2 93 -1 93
-94 -2 -94 -1 2 -89z"/>
<path d="M8129 4123 c-4 -66 -5 -550 -1 -560 5 -15 39 -17 44 -3 2 5 2 138 0
295 -3 276 -3 285 -22 285 -12 0 -20 -7 -21 -17z"/>
<path d="M8458 4073 c-9 -2 -20 -13 -23 -24 -4 -10 -11 -19 -16 -19 -5 0 -9
-32 -9 -70 0 -62 2 -71 18 -68 9 2 19 14 22 27 4 20 12 25 39 27 66 5 89 75
39 117 -20 17 -36 19 -70 10z"/>
<path d="M7086 4020 c-2 -5 0 -150 3 -181 2 -23 151 -23 152 0 1 22 1 121 0
153 -1 26 -2 26 -77 30 -42 2 -77 1 -78 -2z"/>
<path d="M1643 3905 c2 -16 16 -60 30 -97 25 -66 26 -68 6 -68 -12 0 -27 12
-37 30 -9 16 -20 30 -23 30 -6 0 10 -98 27 -164 12 -50 -18 -26 -50 40 -23 46
-30 55 -35 40 -7 -19 -7 -30 3 -145 4 -43 3 -71 -3 -71 -16 0 -48 62 -61 120
-7 30 -14 61 -16 69 -7 24 -29 -5 -49 -64 -11 -30 -22 -55 -26 -55 -4 0 -24
36 -45 80 -46 100 -57 110 -74 70 -7 -16 -21 -32 -31 -35 -40 -13 -51 -67 -27
-127 14 -37 24 -35 38 7 23 71 43 47 53 -63 6 -71 16 -87 55 -95 15 -3 47 -20
71 -39 73 -55 84 -60 97 -43 6 8 14 15 16 15 3 0 27 -21 52 -46 26 -25 50 -43
53 -40 6 6 10 35 12 87 1 14 7 34 15 44 13 18 15 18 39 2 l25 -16 -5 32 c-2
18 -8 49 -13 70 -7 31 -5 39 10 47 9 5 20 6 24 3 3 -3 6 3 6 15 0 11 4 24 10
27 6 3 2 21 -10 43 -24 44 -24 49 -6 84 13 25 12 30 -7 55 -12 15 -46 64 -75
108 -43 64 -53 74 -49 50z"/>
<path d="M7692 3916 c-4 -6 -8 -49 -7 -96 l0 -85 65 4 c65 3 120 8 131 10 3 0
6 42 6 91 l1 91 -94 -2 c-56 -1 -97 -6 -102 -13z"/>
<path d="M7910 3841 l0 -90 91 1 c77 1 92 4 97 19 6 14 7 114 3 152 -1 4 -44
7 -96 7 l-95 0 0 -89z"/>
<path d="M8472 3890 c-13 -6 -29 -23 -36 -40 -7 -17 -15 -27 -19 -23 -4 3 -7
-19 -7 -50 0 -46 3 -57 16 -57 9 0 18 9 21 20 4 15 14 20 37 20 38 0 76 35 76
69 0 21 -41 72 -57 70 -4 0 -18 -4 -31 -9z"/>
<path d="M7085 3697 l0 -102 50 1 c28 1 62 2 76 3 l26 1 1 100 1 100 -77 0
-77 0 0 -103z"/>
<path d="M8040 3734 c-8 -2 -40 -5 -70 -6 l-55 -3 2 -80 c1 -44 2 -87 2 -96 1
-16 11 -17 121 -4 19 2 42 4 51 4 13 1 15 15 13 84 -1 45 -2 87 -3 93 -1 11
-27 14 -61 8z"/>
<path d="M7687 3705 c-2 -5 -3 -48 -2 -95 l1 -85 75 0 c41 0 86 1 102 3 l27 4
0 95 0 94 -100 -3 c-55 -2 -101 -7 -103 -13z"/>
<path d="M8459 3713 c-19 -5 -42 -50 -34 -64 4 -5 1 -9 -4 -9 -7 0 -11 -23
-11 -56 0 -47 3 -55 16 -50 9 3 18 6 20 6 2 0 4 9 4 20 0 11 3 21 8 21 4 1 20
3 36 5 39 4 59 26 59 65 0 50 -41 77 -94 62z"/>
<path d="M5396 3572 c-2 -1 -35 -3 -74 -3 l-71 -1 4 -81 c2 -45 4 -99 4 -120
l1 -38 83 5 c45 2 108 5 140 5 l57 1 0 120 0 121 -71 -3 c-39 -2 -72 -4 -73
-6z"/>
<path d="M7135 3570 l-50 -5 0 -83 c0 -46 2 -87 5 -92 3 -5 38 -6 78 -3 l72 6
0 92 0 92 -27 -1 c-16 -1 -50 -3 -78 -6z"/>
<path d="M8457 3529 c-27 -16 -47 -71 -47 -129 0 -39 3 -50 16 -50 9 0 18 9
21 20 6 21 6 21 41 25 28 3 62 34 66 61 4 25 -21 74 -38 74 -8 0 -20 2 -28 5
-7 2 -21 0 -31 -6z"/>
<path d="M7133 3362 c-42 -3 -43 -4 -44 -40 -1 -39 -1 -152 0 -164 1 -4 20 -4
44 -1 23 3 51 6 62 8 11 1 26 3 33 4 9 1 12 28 12 100 l0 100 -32 -2 c-18 -1
-52 -3 -75 -5z"/>
<path d="M8457 3349 c-29 -17 -47 -65 -47 -124 0 -53 1 -55 20 -45 11 6 20 18
20 28 0 13 10 17 38 19 67 3 93 63 47 108 -26 27 -49 31 -78 14z"/>
<path d="M8444 3165 c-28 -28 -24 -48 9 -40 28 6 68 13 85 14 19 1 14 29 -7
41 -32 16 -60 12 -87 -15z"/>
<path d="M7160 3132 c-80 -6 -75 1 -75 -126 0 -63 2 -117 5 -119 3 -3 28 -1
55 4 99 18 90 4 91 133 2 112 1 116 -20 113 -11 -1 -37 -3 -56 -5z"/>
<path d="M8420 3089 c0 -18 44 -24 280 -34 74 -3 147 -8 162 -11 27 -4 50 13
26 20 -7 3 -51 7 -98 10 -47 3 -121 8 -165 11 -155 11 -205 12 -205 4z"/>
<path d="M9150 3041 c0 -6 12 -11 28 -12 15 -1 38 -2 52 -4 27 -3 244 -18 272
-19 17 0 14 -16 -4 -16 -5 0 -34 -7 -64 -16 -40 -11 -54 -20 -54 -34 0 -17 7
-16 108 9 92 24 107 30 110 49 3 20 -1 22 -40 23 -24 0 -56 2 -73 4 -16 2 -76
6 -133 9 -56 3 -125 9 -152 12 -33 4 -50 2 -50 -5z"/>
<path d="M9315 2939 c-38 -12 -47 -15 -122 -35 -49 -13 -63 -21 -63 -35 0 -22
-6 -22 133 12 78 20 87 25 87 46 0 12 -1 23 -2 22 -2 0 -16 -5 -33 -10z"/>
<path d="M8422 2904 c8 -8 64 -14 158 -18 80 -3 197 -9 261 -12 64 -3 119 -2
122 3 3 5 -26 10 -64 11 -38 2 -86 5 -106 7 -21 2 -92 6 -158 10 -232 13 -227
13 -213 -1z"/>
<path d="M7522 2890 c5 -16 9 -17 158 -25 66 -3 142 -8 168 -10 145 -13 246
-15 237 -6 -6 6 -55 13 -110 16 -103 6 -140 8 -330 20 -60 4 -114 9 -119 12
-5 3 -7 0 -4 -7z"/>
<path d="M9027 2858 c-7 -4 -24 -9 -38 -11 -53 -9 -119 -30 -119 -38 0 -5 0
-12 0 -16 0 -5 13 -8 28 -8 25 0 27 -3 24 -37 -3 -33 0 -39 23 -48 15 -6 33
-17 41 -25 14 -13 32 -93 28 -122 -1 -7 -2 -20 -3 -29 -1 -11 -10 -14 -33 -11
-31 3 -33 5 -34 48 -3 83 -4 90 -11 86 -7 -4 -9 -68 -4 -128 3 -39 142 -26
177 17 13 16 17 327 4 319 -6 -3 -10 -1 -10 5 0 11 -52 10 -73 -2z"/>
<path d="M9170 2841 l-34 -6 -3 -92 -3 -91 27 4 c16 2 39 6 53 8 14 3 33 5 42
5 9 1 29 12 45 25 17 14 47 26 75 29 31 4 60 16 83 34 54 43 43 63 -33 63 -21
0 -53 5 -72 10 -44 13 -134 19 -180 11z"/>
<path d="M8723 2781 c-95 -24 -126 -42 -106 -62 4 -4 55 5 112 19 80 21 105
31 107 44 1 10 -1 19 -4 21 -4 2 -53 -8 -109 -22z"/>
<path d="M6815 2771 c10 -10 28 -13 185 -26 41 -4 93 -8 115 -10 37 -4 76 8
65 19 -3 2 -52 7 -110 10 -58 3 -141 9 -185 12 -57 4 -77 3 -70 -5z"/>
<path d="M8720 2720 c-96 -28 -210 -59 -252 -71 l-78 -21 0 -123 0 -124 38 6
c20 3 65 21 98 39 34 18 74 35 90 37 37 6 86 28 99 44 6 7 34 17 63 23 56 10
86 23 115 48 14 12 17 32 17 104 0 48 -3 88 -7 87 -5 0 -87 -22 -183 -49z"/>
<path d="M8456 2712 c-77 -21 -100 -31 -102 -45 -4 -28 -13 -32 -27 -13 -12
16 -19 16 -117 -9 -58 -15 -109 -30 -113 -34 -14 -14 5 -43 24 -38 16 4 19 -1
20 -34 2 -69 12 -84 75 -114 l49 -23 0 -71 c0 -78 -3 -81 -63 -60 -32 11 -47
45 -44 101 1 15 -2 29 -8 33 -6 4 -10 -22 -10 -74 l0 -79 63 -9 c50 -8 71 -6
111 8 26 10 51 20 54 23 3 3 5 87 5 186 l0 180 36 11 c20 5 49 12 64 15 61 11
102 31 102 49 0 10 -4 19 -10 21 -5 1 -55 -10 -109 -24z"/>
<path d="M7530 2721 c0 -6 12 -12 28 -12 15 -1 43 -3 62 -4 19 -2 82 -6 140
-9 58 -4 119 -9 135 -11 76 -10 289 -17 282 -9 -4 4 -24 9 -45 10 -60 3 -231
14 -307 20 -38 2 -97 7 -130 9 -33 3 -84 8 -112 11 -35 4 -53 2 -53 -5z"/>
<path d="M6380 2670 c-25 -8 -25 -8 5 -10 17 -1 39 -3 50 -5 11 -3 45 -7 75
-9 30 -3 71 -7 90 -10 19 -3 69 -8 110 -11 41 -3 91 -8 110 -10 19 -3 61 -7
93 -10 32 -2 79 -7 104 -11 34 -4 44 -3 41 7 -5 14 -13 16 -123 24 -44 3 -91
8 -105 10 -14 2 -54 7 -90 10 -36 4 -81 8 -100 10 -19 2 -69 6 -110 10 -41 3
-86 7 -100 9 -14 3 -36 1 -50 -4z"/>
<path d="M7915 2568 c-102 -27 -111 -32 -111 -54 0 -13 4 -24 9 -24 5 0 63 14
129 32 106 28 119 34 116 52 -4 28 -17 28 -143 -6z"/>
<path d="M6355 2561 c6 -5 37 -12 70 -15 33 -3 71 -8 85 -10 14 -3 57 -8 95
-11 39 -3 84 -8 100 -10 30 -5 105 -12 200 -21 27 -2 69 -6 95 -9 25 -3 70 -8
100 -11 30 -3 66 -8 80 -10 70 -11 200 -16 200 -7 0 5 -22 10 -49 12 -28 1
-59 4 -71 6 -11 2 -53 7 -93 10 -39 3 -83 8 -97 10 -43 6 -122 15 -185 20
-144 13 -171 16 -195 20 -14 3 -56 7 -95 10 -38 3 -86 8 -105 10 -112 14 -144
16 -135 6z"/>
<path d="M8045 2529 c-38 -10 -92 -26 -120 -34 -27 -8 -59 -17 -70 -20 -34 -7
-288 -76 -330 -90 l-40 -13 3 -153 c2 -85 5 -155 7 -157 7 -7 135 63 135 74 0
15 25 25 44 18 7 -3 37 6 67 20 30 13 81 31 114 40 40 10 68 25 87 45 24 25
32 28 57 21 16 -4 34 -4 42 1 8 5 30 14 50 19 l37 10 1 120 c1 66 -2 120 -6
119 -4 0 -39 -9 -78 -20z"/>
<path d="M7636 2497 c-103 -30 -110 -34 -113 -59 -2 -16 0 -28 3 -28 4 0 61
14 126 31 116 31 118 32 118 60 0 17 -5 29 -12 28 -7 0 -62 -15 -122 -32z"/>
<path d="M5461 2508 c-29 -10 -26 -14 12 -16 18 -1 44 -5 57 -7 14 -3 43 -8
65 -11 22 -3 51 -7 65 -10 80 -12 144 -16 135 -6 -9 9 -42 16 -145 28 -25 3
-73 11 -106 18 -34 7 -71 9 -83 4z"/>
<path d="M6245 2480 c-6 -10 28 -18 110 -25 33 -3 70 -7 82 -9 12 -3 48 -7 80
-11 32 -3 92 -10 134 -15 42 -6 96 -12 120 -15 24 -2 60 -6 79 -9 19 -3 55 -8
80 -11 25 -2 69 -7 98 -11 41 -5 52 -3 52 8 0 8 -6 15 -12 15 -7 0 -35 3 -63
6 -27 4 -75 9 -105 12 -30 3 -71 8 -90 10 -19 2 -60 7 -90 10 -30 4 -66 8 -80
10 -14 2 -59 6 -100 10 -41 4 -88 8 -105 11 -16 2 -55 6 -85 9 -30 3 -65 8
-77 10 -13 2 -25 0 -28 -5z"/>
<path d="M7365 2423 c-49 -13 -97 -26 -105 -27 -8 -2 -17 -13 -20 -26 -7 -31
-30 -38 -30 -10 0 16 -4 20 -16 16 -8 -3 -52 -15 -97 -26 -144 -36 -147 -38
-147 -71 0 -16 2 -29 5 -29 4 0 211 55 246 66 13 3 15 -5 14 -51 -2 -52 -1
-56 34 -82 77 -58 81 -65 81 -164 0 -80 -2 -89 -19 -89 -25 0 -71 44 -72 70
-1 11 -3 29 -4 40 -1 11 -3 29 -4 40 0 11 -5 20 -9 20 -12 0 -8 -178 3 -188 6
-5 31 -15 57 -22 44 -12 50 -11 117 20 l70 32 -3 224 c-3 185 -1 224 10 224 9
0 14 11 14 30 0 37 -5 37 -125 3z"/>
<path d="M4990 2380 c-12 -8 -12 -10 5 -11 11 0 29 -2 40 -4 48 -7 101 -16
115 -20 8 -2 35 -7 60 -10 25 -3 52 -8 61 -11 9 -2 32 -7 50 -9 19 -3 45 -7
59 -10 14 -3 41 -7 60 -11 19 -3 55 -9 80 -14 25 -5 61 -12 80 -14 19 -3 46
-8 60 -11 14 -3 39 -7 55 -9 17 -3 49 -9 73 -14 23 -6 42 -7 42 -3 -1 22 -35
32 -208 61 -107 17 -203 33 -215 35 -129 23 -380 65 -390 65 -6 0 -19 -5 -27
-10z"/>
<path d="M6260 2382 c14 -9 54 -17 150 -28 25 -3 52 -7 60 -9 8 -2 47 -7 85
-11 39 -3 72 -8 75 -9 3 -2 33 -6 65 -10 33 -3 70 -8 82 -10 12 -3 25 -1 28 5
3 5 -2 10 -12 11 -10 0 -25 2 -33 3 -8 2 -37 6 -65 10 -27 3 -61 8 -75 10 -14
2 -65 10 -115 16 -49 7 -99 14 -110 16 -57 11 -149 14 -135 6z"/>
<path d="M6783 2266 c-61 -17 -115 -34 -119 -39 -4 -4 -8 -18 -9 -32 -1 -31
12 -31 91 -6 32 11 79 25 104 31 54 14 69 25 65 48 -2 9 -4 20 -4 25 -1 9 3
10 -128 -27z"/>
<path d="M7140 2284 c-25 -8 -54 -16 -65 -19 -22 -4 -88 -23 -415 -115 -118
-34 -224 -63 -234 -65 -11 -3 -40 -11 -65 -19 -25 -7 -65 -19 -89 -25 l-42
-12 2 -177 3 -177 73 0 c69 0 77 2 150 46 42 26 93 49 112 52 51 7 123 42 138
66 9 15 22 21 50 21 55 1 273 64 287 84 7 9 22 16 34 16 26 0 107 45 114 63 8
22 8 277 0 276 -4 -1 -28 -7 -53 -15z"/>
<path d="M6254 2279 c-8 -14 14 -28 46 -30 14 0 34 -2 45 -4 44 -8 102 -17
145 -22 87 -11 83 -18 -24 -43 l-104 -25 1 -33 c1 -30 3 -33 27 -27 14 4 34 9
45 11 11 2 58 15 105 27 l84 24 1 34 c0 37 -9 41 -120 55 -27 3 -53 8 -57 11
-4 2 -29 6 -55 9 -26 2 -64 9 -83 14 -44 12 -47 12 -56 -1z"/>
</g>
</svg>
