<?xml version="1.0" standalone="no"?>
<!DOCTYPE svg PUBLIC "-//W3C//DTD SVG 20010904//EN"
 "http://www.w3.org/TR/2001/REC-SVG-20010904/DTD/svg10.dtd">
<svg version="1.0" xmlns="http://www.w3.org/2000/svg"
 width="161.000000pt" height="161.000000pt" viewBox="0 0 161.000000 161.000000"
 preserveAspectRatio="xMidYMid meet">
<metadata>
Created by potrace 1.14, written by Peter Selinger 2001-2017
</metadata>
<g transform="translate(0.000000,161.000000) scale(0.100000,-0.100000)"
fill="#000000" stroke="none">
<path d="M0 1075 l0 -535 45 0 c38 0 45 3 45 20 0 17 7 20 43 20 24 0 52 -7
63 -15 10 -8 26 -15 35 -15 11 0 18 -12 23 -38 5 -30 2 -40 -14 -54 -11 -9
-20 -23 -20 -31 0 -18 -17 -32 -49 -40 -18 -4 -31 2 -53 24 -16 16 -34 27 -39
24 -5 -4 -25 -2 -44 4 l-35 9 0 -224 0 -224 805 0 805 0 0 226 c0 197 -2 225
-15 220 -9 -3 -15 0 -15 9 0 8 7 15 14 15 13 0 15 42 16 270 l0 270 -22 -9
c-30 -11 -47 -39 -30 -50 23 -14 1 -40 -51 -60 -52 -19 -75 -50 -40 -53 10 0
23 -2 30 -2 7 -1 18 -7 25 -14 6 -6 23 -12 38 -12 25 -1 25 -1 -10 -31 -19
-16 -53 -34 -75 -40 -63 -16 -95 -30 -95 -44 0 -8 -19 -10 -68 -7 -61 3 -70 2
-95 -22 -15 -14 -37 -26 -48 -26 -11 0 -22 -6 -25 -13 -2 -7 -19 -14 -37 -15
-17 -1 -44 -5 -59 -8 -44 -9 -32 13 17 32 25 9 45 21 45 25 0 5 7 9 15 9 8 0
25 12 38 26 15 16 38 27 58 29 19 2 33 7 32 13 -1 5 15 12 35 15 48 8 210 51
217 59 6 6 -139 -16 -206 -31 -37 -8 -39 -8 -37 16 2 21 7 24 37 21 26 -2 35
1 37 14 1 10 9 25 18 34 21 21 20 27 -3 21 -26 -6 -38 3 -47 37 -5 20 -4 27 4
22 10 -6 27 0 72 26 8 4 22 11 30 15 107 45 122 54 117 72 -2 10 -1 25 4 32 6
10 9 8 9 -8 0 -18 6 -23 25 -23 23 0 24 2 15 20 -12 23 -6 40 16 40 12 0 14
38 14 245 l0 245 -382 -2 -383 -3 -2 -25 c-2 -22 -2 -23 6 -5 7 15 9 9 9 -25
0 -25 2 -54 4 -65 2 -13 -3 -20 -12 -20 -12 0 -16 16 -18 73 l-3 72 -414 0
-415 0 0 -535z m830 360 c-7 -8 -17 -15 -22 -15 -11 0 14 29 26 30 5 0 3 -7
-4 -15z m-100 -73 c0 -15 5 -33 12 -40 17 -17 54 -15 74 5 9 10 24 18 32 20 9
1 24 12 34 25 l18 23 0 -34 c0 -30 -2 -33 -25 -29 -23 5 -25 2 -25 -27 0 -30
-26 -66 -39 -55 -3 3 -13 -17 -22 -44 -9 -27 -24 -62 -33 -78 -10 -16 -14 -28
-9 -27 17 3 33 -1 30 -8 -1 -5 3 -8 8 -8 6 0 9 5 7 12 -2 7 3 16 11 18 7 3 14
22 14 42 1 41 23 64 53 56 24 -6 26 -21 5 -29 -8 -4 -12 -10 -9 -15 3 -5 -2
-12 -10 -15 -19 -7 -21 -35 -3 -53 10 -11 9 -12 -2 -6 -11 6 -13 4 -8 -8 6
-15 -21 -32 -83 -53 -26 -9 -34 -10 -85 -13 -23 -1 -35 -9 -48 -33 l-19 -33
-13 25 c-8 14 -11 34 -9 46 3 13 -5 36 -21 59 -17 26 -22 42 -15 49 16 16 12
34 -15 74 -42 62 -27 70 44 23 24 -16 50 -27 57 -24 7 2 21 25 30 49 9 24 23
49 30 55 8 6 14 27 14 45 0 19 5 34 10 34 6 0 10 -13 10 -28z m223 -78 c5 -26
-16 -34 -30 -11 -13 21 -11 33 7 34 12 1 20 -7 23 -23z m37 -81 c0 -7 -6 -13
-14 -13 -15 0 -25 27 -18 49 4 11 8 11 18 -4 8 -10 14 -25 14 -32z m-530 -104
c44 -87 44 -89 31 -89 -5 0 -13 10 -16 23 -8 24 -44 67 -57 67 -4 0 -8 -13 -8
-29 0 -28 0 -28 -52 -23 -29 2 -59 9 -65 14 -9 7 -16 3 -24 -15 -11 -25 -49
-44 -49 -25 0 5 -6 8 -12 5 -7 -2 -12 -9 -11 -15 1 -5 -4 -13 -12 -16 -8 -3
-15 -1 -15 4 0 5 -15 16 -32 24 -18 7 -49 30 -67 50 l-35 36 31 0 c18 0 35 -4
38 -10 8 -13 52 -13 60 1 4 6 28 9 53 7 41 -3 46 -1 52 21 5 22 7 23 22 8 9
-10 19 -17 23 -17 3 0 15 -9 27 -20 29 -27 53 -27 38 -1 -5 11 -8 34 -6 53 2
18 4 39 5 47 2 27 39 -19 81 -100z m922 12 c2 -8 -5 -15 -14 -16 -19 -3 -32
33 -21 60 5 15 8 14 19 -7 7 -14 14 -30 16 -37z m108 3 c0 -8 -5 -12 -10 -9
-6 4 -8 11 -5 16 9 14 15 11 15 -7z m-457 -16 c6 -19 -22 -70 -36 -65 -7 2
-13 20 -14 40 -1 32 2 37 22 37 13 0 25 -6 28 -12z m409 -21 c-4 -14 -7 -16
-13 -5 -12 19 -11 25 5 25 8 0 11 -8 8 -20z m-124 -24 c0 -10 3 -30 7 -45 5
-20 3 -29 -6 -31 -8 -2 -36 -11 -63 -21 -27 -9 -52 -13 -55 -10 -3 4 0 9 7 11
10 4 10 7 -2 17 -10 8 -12 17 -5 34 7 18 14 22 31 16 30 -9 35 -14 22 -22 -6
-4 -13 -14 -16 -23 -5 -13 -2 -16 13 -12 10 3 16 10 12 16 -4 6 -1 7 7 2 10
-6 11 -2 6 18 -4 19 -1 33 11 46 23 25 32 26 31 4z m-454 -38 c3 -8 1 -15 -4
-15 -6 0 -10 7 -10 15 0 8 2 15 4 15 2 0 6 -7 10 -15z m-34 -5 c0 -5 -4 -10
-10 -10 -5 0 -10 5 -10 10 0 6 5 10 10 10 6 0 10 -4 10 -10z m75 -44 c-18 -13
-18 -14 3 -36 12 -13 21 -29 21 -34 -5 -47 4 -86 26 -110 32 -34 31 -37 -5
-29 -20 3 -30 1 -30 -6 0 -7 -8 -11 -17 -9 -19 3 -49 101 -33 106 6 2 10 10
10 18 0 15 -15 18 -67 15 -38 -3 -41 6 -15 60 17 38 18 38 71 39 49 0 53 -2
36 -14z m-679 -114 c-3 -2 -13 -1 -23 3 -10 5 -21 8 -24 7 -4 -1 -4 8 -1 20 4
16 2 19 -9 13 -12 -8 -12 -6 0 8 11 13 11 20 1 32 -6 8 -9 19 -5 25 3 5 19
-15 36 -46 16 -32 27 -59 25 -62z m324 87 c0 -18 -18 -9 -23 12 -4 16 -3 18 9
8 8 -6 14 -15 14 -20z m76 -94 c-1 -26 -7 -32 -49 -47 -57 -21 -135 -55 -159
-68 -14 -8 -18 -6 -18 5 0 22 -16 18 -95 -20 -38 -18 -73 -31 -77 -29 -12 7
-10 24 3 24 6 0 25 11 42 24 18 14 43 29 57 35 14 6 54 29 89 51 34 22 65 40
68 40 2 0 21 11 41 25 20 14 47 25 59 25 13 0 23 6 24 13 2 23 15 -48 15 -78z
m574 21 c0 -26 -6 -18 -14 19 -5 22 -4 26 4 15 5 -8 10 -24 10 -34z m114 9 c7
-18 -2 -45 -15 -45 -5 0 -12 7 -15 15 -7 18 2 45 15 45 5 0 11 -7 15 -15z
m-484 -57 c0 -18 -2 -20 -9 -8 -6 8 -7 18 -5 22 9 14 14 9 14 -14z m-42 -27
c-16 -5 -29 22 -15 31 7 4 15 0 18 -10 4 -9 2 -19 -3 -21z m389 -13 c-3 -8 -6
-5 -6 6 -1 11 2 17 5 13 3 -3 4 -12 1 -19z m43 2 c0 -17 -2 -19 -14 -8 -14 13
-12 28 5 28 5 0 9 -9 9 -20z m-1025 -20 c0 -25 -31 -34 -56 -17 l-23 17 22 0
c12 0 22 4 22 9 0 5 8 8 18 7 9 -2 17 -9 17 -16z m1005 -5 c0 -8 -9 -15 -20
-15 -22 0 -27 15 -7 23 21 9 27 7 27 -8z m-390 -11 c0 -9 -5 -14 -12 -12 -18
6 -21 28 -4 28 9 0 16 -7 16 -16z m-241 -59 c12 -48 15 -50 57 -35 57 22 104
29 104 15 0 -7 -13 -18 -29 -23 -28 -10 -29 -13 -25 -61 3 -49 2 -51 -21 -51
-20 0 -25 5 -25 24 0 31 -23 50 -50 41 -18 -6 -21 -3 -19 17 1 12 -3 36 -9 51
-14 33 -16 81 -3 73 5 -3 14 -26 20 -51z m61 -5 c0 -13 -11 -13 -30 0 -12 8
-11 10 8 10 12 0 22 -4 22 -10z m566 -106 c50 -24 56 -25 78 -11 12 9 39 19
59 22 34 7 37 5 51 -30 9 -21 16 -39 16 -40 0 -2 -135 -15 -211 -20 -20 -1
-41 -5 -45 -8 -15 -9 -154 -7 -154 2 0 4 -11 13 -24 19 -19 8 -26 8 -30 -1 -2
-7 -5 -3 -5 8 -1 30 12 44 50 56 30 9 111 24 148 28 8 0 38 -11 67 -25z m234
16 c0 -5 -2 -10 -4 -10 -3 0 -8 5 -11 10 -3 6 -1 10 4 10 6 0 11 -4 11 -10z
m24 -53 c20 -21 20 -22 -12 -31 -19 -6 -25 -2 -36 26 -24 55 -5 58 48 5z m33
7 c-3 -3 -12 -4 -19 -1 -8 3 -5 6 6 6 11 1 17 -2 13 -5z m-702 -24 c-10 -11
-27 -20 -39 -20 -16 0 -13 4 14 19 45 25 47 25 25 1z m750 10 c-3 -5 -10 -10
-16 -10 -5 0 -9 5 -9 10 0 6 7 10 16 10 8 0 12 -4 9 -10z m-655 -9 c0 -5 -6
-11 -14 -14 -8 -3 -12 -16 -11 -32 2 -16 -2 -28 -11 -32 -9 -3 -12 -13 -9 -24
5 -16 1 -17 -35 -14 -23 2 -48 9 -56 16 -13 11 -10 14 18 23 28 9 33 16 33 41
0 25 5 31 30 36 45 10 55 10 55 0z m40 -33 c0 -5 -7 -8 -15 -8 -8 0 -12 -6 -9
-13 3 -8 -2 -20 -11 -27 -10 -8 -15 -9 -15 -1 0 6 5 11 11 11 6 0 8 9 4 20 -7
23 16 54 27 36 4 -6 8 -14 8 -18z m570 2 c0 -5 -5 -10 -11 -10 -5 0 -7 5 -4
10 3 6 8 10 11 10 2 0 4 -4 4 -10z m-845 -30 c-4 -12 -1 -27 5 -35 11 -13 6
-15 -29 -13 -30 1 -42 6 -47 20 -7 23 20 47 54 48 19 0 22 -4 17 -20z m45 5
c0 -9 -9 -15 -21 -15 -18 0 -19 2 -9 15 7 8 16 15 21 15 5 0 9 -7 9 -15z m630
0 c0 -8 8 -15 18 -16 13 0 14 -2 2 -6 -22 -9 -49 -46 -50 -66 0 -17 -2 -17
-30 3 l-30 21 0 -20 c0 -14 6 -21 20 -21 11 0 20 -4 20 -9 0 -5 -16 -7 -35 -5
-26 2 -35 -1 -35 -12 0 -10 7 -13 25 -8 19 5 25 2 25 -9 0 -13 -6 -14 -32 -6
-18 5 -34 9 -36 9 -1 0 1 12 4 26 4 17 3 25 -3 21 -7 -4 -9 11 -7 43 3 41 1
48 -11 44 -8 -4 -15 -1 -15 5 0 6 9 11 20 11 11 0 20 -6 20 -12 0 -10 2 -10 9
0 9 15 42 13 53 -3 4 -5 2 -15 -3 -21 -7 -8 -6 -15 1 -19 7 -4 14 2 17 13 2
11 14 23 25 25 11 3 17 10 13 16 -3 6 -1 11 4 11 6 0 11 -7 11 -15z m-590 -4
c0 -6 -4 -13 -10 -16 -5 -3 -10 1 -10 9 0 9 5 16 10 16 6 0 10 -4 10 -9z m808
-18 c0 -13 -4 -23 -9 -23 -5 0 -9 7 -9 15 0 8 -4 15 -10 15 -5 0 -10 4 -10 8
0 4 8 8 19 8 13 0 19 -7 19 -23z m-978 -2 c5 -11 10 -24 10 -30 0 -12 -30 -15
-30 -3 0 4 -3 17 -6 30 -8 27 11 30 26 3z m530 9 c0 -5 -4 -10 -10 -10 -5 0
-10 5 -10 10 0 6 5 10 10 10 6 0 10 -4 10 -10z m44 -6 c23 -9 20 -23 -4 -17
-11 3 -20 9 -20 14 0 11 3 11 24 3z m-434 -19 c0 -8 -7 -15 -15 -15 -8 0 -15
7 -15 15 0 8 7 15 15 15 8 0 15 -7 15 -15z m356 -15 c17 0 17 -5 2 -29 -11
-18 -13 -17 -30 15 -22 42 -23 50 -2 30 8 -9 22 -16 30 -16z m329 20 c-3 -5
-11 -10 -16 -10 -6 0 -7 5 -4 10 3 6 11 10 16 10 6 0 7 -4 4 -10z m-385 -15
c0 -2 -9 -3 -19 -2 -11 0 -18 5 -15 9 4 6 34 0 34 -7z m-480 -5 c0 -5 -2 -10
-4 -10 -3 0 -8 5 -11 10 -3 6 -1 10 4 10 6 0 11 -4 11 -10z m410 -4 c0 -3 -4
-8 -10 -11 -5 -3 -10 -1 -10 4 0 6 5 11 10 11 6 0 10 -2 10 -4z m420 -20 c0
-8 -4 -18 -10 -21 -5 -3 -10 3 -10 14 0 12 5 21 10 21 6 0 10 -6 10 -14z
m-1086 -43 c-11 -12 -18 -13 -27 -4 -8 8 -8 11 1 11 7 0 12 7 12 16 0 13 3 14
15 4 13 -11 13 -14 -1 -27z m93 29 c11 8 12 7 7 -6 -3 -9 -11 -16 -16 -16 -6
0 -8 -9 -5 -20 3 -10 1 -20 -4 -22 -5 -2 -10 -14 -11 -28 -2 -19 2 -25 17 -25
14 0 20 7 20 22 0 11 3 25 7 29 4 4 2 14 -5 23 -11 14 -10 14 6 2 11 -9 14
-17 8 -25 -11 -13 0 -38 15 -35 35 6 48 -24 18 -45 -9 -7 -17 -24 -17 -39 -2
-21 -6 -25 -19 -21 -13 4 -18 0 -18 -15 0 -12 -7 -21 -15 -21 -8 0 -15 7 -15
15 0 10 -11 15 -37 16 -33 1 -34 2 -13 8 20 5 25 14 27 40 1 20 -6 40 -17 51
-26 26 -34 56 -16 63 9 4 16 -3 20 -19 10 -38 28 -28 26 14 -3 61 -2 68 12 54
8 -8 15 -9 25 0z m538 -12 c10 -11 16 -20 13 -20 -3 0 -13 9 -23 20 -10 11
-16 20 -13 20 3 0 13 -9 23 -20z m417 -23 c2 -21 8 -27 25 -27 15 0 23 6 23
17 0 9 2 14 5 11 4 -3 3 -18 -1 -33 -4 -16 -9 -22 -14 -15 -4 6 -11 10 -16 9
-24 -6 -40 13 -36 42 5 35 11 33 14 -4z m-694 -7 c-24 -33 -38 -38 -38 -15 0
9 -7 18 -15 21 -29 11 -15 21 30 22 l45 1 -22 -29z m507 4 c-16 -24 -15 -26 2
-30 23 -6 68 -83 56 -95 -6 -6 -15 5 -23 26 -8 19 -19 36 -24 37 -6 0 -17 2
-24 2 -7 1 -17 7 -21 15 -6 10 -10 10 -16 2 -12 -20 4 -44 25 -38 14 3 20 -1
22 -17 2 -11 9 -20 15 -19 6 1 14 -4 17 -12 8 -23 -7 -18 -52 15 -23 17 -49
30 -57 30 -19 0 -19 20 0 47 8 12 12 29 8 39 -5 14 -3 15 12 7 13 -7 25 -6 44
3 35 19 36 18 16 -12z m-585 4 c0 -4 -4 -8 -10 -8 -5 0 -10 -7 -10 -15 0 -8 5
-15 10 -15 6 0 10 5 10 11 0 6 7 3 16 -6 14 -14 15 -20 4 -41 -10 -18 -16 -21
-27 -12 -7 6 -16 8 -20 4 -3 -3 -11 4 -18 17 -9 18 -8 24 4 34 13 9 13 14 4
24 -9 9 -16 9 -26 1 -8 -7 -17 -9 -20 -5 -4 3 -7 -3 -7 -15 0 -29 -10 -27 -40
5 -14 15 -20 24 -14 20 6 -3 24 -2 40 3 35 10 104 9 104 -2z m810 2 c0 -5 -4
-10 -10 -10 -5 0 -10 5 -10 10 0 6 5 10 10 10 6 0 10 -4 10 -10z m54 -55 c3
-8 1 -15 -4 -15 -6 0 -10 7 -10 15 0 8 2 15 4 15 2 0 6 -7 10 -15z m-938 -30
c-4 -10 1 -15 17 -16 12 0 16 -3 9 -6 -21 -8 -42 5 -36 22 3 8 8 15 11 15 3 0
3 -7 -1 -15z m-176 -15 c0 -5 -4 -10 -10 -10 -5 0 -10 5 -10 10 0 6 5 10 10
10 6 0 10 -4 10 -10z m-37 -45 c-5 -13 -23 -22 -23 -11 0 15 14 35 21 31 4 -3
6 -12 2 -20z m952 -6 c-4 -5 -13 -9 -22 -9 -13 0 -13 3 -3 15 13 15 35 11 25
-6z"/>
<path d="M629 1089 c0 -2 -2 -14 -3 -26 -3 -29 22 -30 54 -3 22 19 23 20 2 20
-11 0 -27 3 -36 6 -9 3 -16 5 -17 3z"/>
<path d="M600 440 c0 -5 5 -10 10 -10 6 0 10 5 10 10 0 6 -4 10 -10 10 -5 0
-10 -4 -10 -10z"/>
<path d="M1200 375 c0 -8 5 -15 10 -15 6 0 10 7 10 15 0 8 -4 15 -10 15 -5 0
-10 -7 -10 -15z"/>
<path d="M355 230 c-8 -14 3 -30 21 -30 16 0 16 2 8 24 -7 18 -20 21 -29 6z"/>
<path d="M320 220 c0 -5 5 -10 11 -10 5 0 7 5 4 10 -3 6 -8 10 -11 10 -2 0 -4
-4 -4 -10z"/>
<path d="M322 178 c5 -15 28 -23 28 -10 0 5 -7 13 -16 16 -10 4 -14 1 -12 -6z"/>
<path d="M1365 831 c-3 -5 -1 -12 5 -16 5 -3 10 1 10 9 0 18 -6 21 -15 7z"/>
<path d="M144 499 c-10 -4 -13 -8 -6 -8 15 -1 16 -31 1 -31 -5 0 -8 -4 -4 -9
3 -6 -3 -14 -12 -20 -14 -8 -15 -10 -3 -11 26 0 91 50 88 67 -3 18 -34 24 -64
12z"/>
</g>
</svg>
